<?xml version="1.0" encoding="UTF-8"?>
<!DOCTYPE svg PUBLIC "-//W3C//DTD SVG 1.1//EN"
    "http://www.w3.org/Graphics/SVG/1.1/DTD/svg11.dtd"><svg xmlns="http://www.w3.org/2000/svg" viewBox="0.0 0.0 960.0 400.0" height="400.0000" font-size="1" stroke-opacity="1" width="960.0000" xmlns:xlink="http://www.w3.org/1999/xlink" stroke="rgb(0,0,0)" version="1.1"><defs></defs><g stroke-linecap="butt" fill="rgb(255,228,225)" stroke-miterlimit="10.0" stroke-width="0.0" fill-opacity="1.0" stroke-opacity="1.0" stroke-linejoin="miter" stroke="rgb(0,0,0)"><path d="M 800.0000,320.0000 l -0.0000,-80.0000 h -80.0000 l -0.0000,80.0000 Z"/></g><g stroke-linecap="butt" fill="rgb(0,0,0)" stroke-miterlimit="10.0" stroke-width="0.0" fill-opacity="1.0" stroke-opacity="1.0" stroke-linejoin="miter" stroke="rgb(0,0,0)"><path d="M 768.0000,280.0000 c 0.0000,-4.4183 -3.5817,-8.0000 -8.0000 -8.0000c -4.4183,-0.0000 -8.0000,3.5817 -8.0000 8.0000c -0.0000,4.4183 3.5817,8.0000 8.0000 8.0000c 4.4183,0.0000 8.0000,-3.5817 8.0000 -8.0000Z"/></g><g stroke-linecap="butt" fill="rgb(255,228,225)" stroke-miterlimit="10.0" stroke-width="0.0" fill-opacity="1.0" stroke-opacity="1.0" stroke-linejoin="miter" stroke="rgb(0,0,0)"><path d="M 880.0000,240.0000 l -0.0000,-80.0000 h -80.0000 l -0.0000,80.0000 Z"/></g><g stroke-linecap="butt" fill="rgb(0,0,0)" stroke-miterlimit="10.0" stroke-width="0.0" fill-opacity="1.0" stroke-opacity="1.0" stroke-linejoin="miter" stroke="rgb(0,0,0)"><path d="M 848.0000,200.0000 c 0.0000,-4.4183 -3.5817,-8.0000 -8.0000 -8.0000c -4.4183,-0.0000 -8.0000,3.5817 -8.0000 8.0000c -0.0000,4.4183 3.5817,8.0000 8.0000 8.0000c 4.4183,0.0000 8.0000,-3.5817 8.0000 -8.0000Z"/></g><g stroke-linecap="butt" fill="rgb(173,255,47)" stroke-miterlimit="10.0" stroke-width="0.0" fill-opacity="1.0" stroke-opacity="1.0" stroke-linejoin="miter" stroke="rgb(0,0,0)"><path d="M 800.0000,240.0000 l -0.0000,-80.0000 h -80.0000 l -0.0000,80.0000 Z"/></g><g stroke-linecap="butt" fill="rgb(176,196,222)" stroke-miterlimit="10.0" stroke-width="0.0" fill-opacity="1.0" stroke-opacity="1.0" stroke-linejoin="miter" stroke="rgb(0,0,0)"><path d="M 800.0000,160.0000 l -0.0000,-80.0000 h -80.0000 l -0.0000,80.0000 Z"/></g><g stroke-linecap="butt" fill="rgb(0,0,0)" stroke-dashoffset="0.0" stroke-dasharray="8.0,8.0" stroke-miterlimit="10.0" stroke-width="2.478709341572747" fill-opacity="0.0" stroke-opacity="1.0" stroke-linejoin="miter" stroke="rgb(0,0,0)"><path d="M 760.0000,280.0000 l 0.0000,49.0161 "/></g><g stroke-linecap="butt" fill="rgb(0,0,0)" stroke-dashoffset="0.0" stroke-dasharray="8.0,8.0" stroke-miterlimit="10.0" stroke-width="0.0" fill-opacity="1.0" stroke-opacity="1.0" stroke-linejoin="miter" stroke="rgb(0,0,0)"></g><g stroke-linecap="butt" fill="rgb(0,0,0)" stroke-dashoffset="0.0" stroke-dasharray="8.0,8.0" stroke-miterlimit="10.0" stroke-width="0.0" fill-opacity="1.0" stroke-opacity="1.0" stroke-linejoin="miter" stroke="rgb(0,0,0)"></g><g stroke-linecap="butt" fill="rgb(0,0,0)" stroke-dashoffset="0.0" stroke-dasharray="8.0,8.0" stroke-miterlimit="10.0" stroke-width="0.0" fill-opacity="1.0" stroke-opacity="1.0" stroke-linejoin="miter" stroke="rgb(0,0,0)"><path d="M 760.0000,360.0000 l 11.8859,-36.5811 l -11.8859,6.2488 l -11.8859,-6.2488 Z"/></g><g stroke-linecap="butt" fill="rgb(0,0,0)" stroke-dashoffset="0.0" stroke-dasharray="8.0,8.0" stroke-miterlimit="10.0" stroke-width="0.0" fill-opacity="1.0" stroke-opacity="1.0" stroke-linejoin="miter" stroke="rgb(0,0,0)"><path d="M 760.0000,329.6677 l -0.0000,-0.6516 l 1.2394,-0.0000 l -1.2394,0.6516 l -0.0000,-0.6516 l -1.2394,0.0000 Z"/></g><g stroke-linecap="butt" fill="rgb(0,0,0)" stroke-miterlimit="10.0" stroke-width="2.478709341572747" fill-opacity="0.0" stroke-opacity="1.0" stroke-linejoin="miter" stroke="rgb(0,0,0)"><path d="M 840.0000,200.0000 h 49.0161 "/></g><g stroke-linecap="butt" fill="rgb(0,0,0)" stroke-miterlimit="10.0" stroke-width="0.0" fill-opacity="1.0" stroke-opacity="1.0" stroke-linejoin="miter" stroke="rgb(0,0,0)"></g><g stroke-linecap="butt" fill="rgb(0,0,0)" stroke-miterlimit="10.0" stroke-width="0.0" fill-opacity="1.0" stroke-opacity="1.0" stroke-linejoin="miter" stroke="rgb(0,0,0)"></g><g stroke-linecap="butt" fill="rgb(0,0,0)" stroke-miterlimit="10.0" stroke-width="0.0" fill-opacity="1.0" stroke-opacity="1.0" stroke-linejoin="miter" stroke="rgb(0,0,0)"><path d="M 920.0000,200.0000 l -36.5811,-11.8859 l 6.2488,11.8859 l -6.2488,11.8859 Z"/></g><g stroke-linecap="butt" fill="rgb(0,0,0)" stroke-miterlimit="10.0" stroke-width="0.0" fill-opacity="1.0" stroke-opacity="1.0" stroke-linejoin="miter" stroke="rgb(0,0,0)"><path d="M 889.6677,200.0000 h -0.6516 v -1.2394 l 0.6516,1.2394 h -0.6516 v 1.2394 Z"/></g><g stroke-linecap="butt" fill="rgb(255,228,225)" stroke-miterlimit="10.0" stroke-width="0.0" fill-opacity="1.0" stroke-opacity="1.0" stroke-linejoin="miter" stroke="rgb(0,0,0)"><path d="M 480.0000,320.0000 l -0.0000,-80.0000 h -80.0000 l -0.0000,80.0000 Z"/></g><g stroke-linecap="butt" fill="rgb(0,0,0)" stroke-miterlimit="10.0" stroke-width="0.0" fill-opacity="1.0" stroke-opacity="1.0" stroke-linejoin="miter" stroke="rgb(0,0,0)"><path d="M 448.0000,280.0000 c 0.0000,-4.4183 -3.5817,-8.0000 -8.0000 -8.0000c -4.4183,-0.0000 -8.0000,3.5817 -8.0000 8.0000c -0.0000,4.4183 3.5817,8.0000 8.0000 8.0000c 4.4183,0.0000 8.0000,-3.5817 8.0000 -8.0000Z"/></g><g stroke-linecap="butt" fill="rgb(173,255,47)" stroke-miterlimit="10.0" stroke-width="0.0" fill-opacity="1.0" stroke-opacity="1.0" stroke-linejoin="miter" stroke="rgb(0,0,0)"><path d="M 560.0000,240.0000 l -0.0000,-80.0000 h -80.0000 l -0.0000,80.0000 Z"/></g><g stroke-linecap="butt" fill="rgb(176,196,222)" stroke-miterlimit="10.0" stroke-width="0.0" fill-opacity="1.0" stroke-opacity="1.0" stroke-linejoin="miter" stroke="rgb(0,0,0)"><path d="M 480.0000,240.0000 l -0.0000,-80.0000 h -80.0000 l -0.0000,80.0000 Z"/></g><g stroke-linecap="butt" fill="rgb(255,228,225)" stroke-miterlimit="10.0" stroke-width="0.0" fill-opacity="1.0" stroke-opacity="1.0" stroke-linejoin="miter" stroke="rgb(0,0,0)"><path d="M 480.0000,160.0000 l -0.0000,-80.0000 h -80.0000 l -0.0000,80.0000 Z"/></g><g stroke-linecap="butt" fill="rgb(0,0,0)" stroke-miterlimit="10.0" stroke-width="0.0" fill-opacity="1.0" stroke-opacity="1.0" stroke-linejoin="miter" stroke="rgb(0,0,0)"><path d="M 448.0000,120.0000 c 0.0000,-4.4183 -3.5817,-8.0000 -8.0000 -8.0000c -4.4183,-0.0000 -8.0000,3.5817 -8.0000 8.0000c -0.0000,4.4183 3.5817,8.0000 8.0000 8.0000c 4.4183,0.0000 8.0000,-3.5817 8.0000 -8.0000Z"/></g><g stroke-linecap="butt" fill="rgb(0,0,0)" stroke-dashoffset="0.0" stroke-dasharray="8.0,8.0" stroke-miterlimit="10.0" stroke-width="2.478709341572747" fill-opacity="0.0" stroke-opacity="1.0" stroke-linejoin="miter" stroke="rgb(0,0,0)"><path d="M 440.0000,280.0000 l 0.0000,49.0161 "/></g><g stroke-linecap="butt" fill="rgb(0,0,0)" stroke-dashoffset="0.0" stroke-dasharray="8.0,8.0" stroke-miterlimit="10.0" stroke-width="0.0" fill-opacity="1.0" stroke-opacity="1.0" stroke-linejoin="miter" stroke="rgb(0,0,0)"></g><g stroke-linecap="butt" fill="rgb(0,0,0)" stroke-dashoffset="0.0" stroke-dasharray="8.0,8.0" stroke-miterlimit="10.0" stroke-width="0.0" fill-opacity="1.0" stroke-opacity="1.0" stroke-linejoin="miter" stroke="rgb(0,0,0)"></g><g stroke-linecap="butt" fill="rgb(0,0,0)" stroke-dashoffset="0.0" stroke-dasharray="8.0,8.0" stroke-miterlimit="10.0" stroke-width="0.0" fill-opacity="1.0" stroke-opacity="1.0" stroke-linejoin="miter" stroke="rgb(0,0,0)"><path d="M 440.0000,360.0000 l 11.8859,-36.5811 l -11.8859,6.2488 l -11.8859,-6.2488 Z"/></g><g stroke-linecap="butt" fill="rgb(0,0,0)" stroke-dashoffset="0.0" stroke-dasharray="8.0,8.0" stroke-miterlimit="10.0" stroke-width="0.0" fill-opacity="1.0" stroke-opacity="1.0" stroke-linejoin="miter" stroke="rgb(0,0,0)"><path d="M 440.0000,329.6677 l -0.0000,-0.6516 l 1.2394,-0.0000 l -1.2394,0.6516 l -0.0000,-0.6516 l -1.2394,0.0000 Z"/></g><g stroke-linecap="butt" fill="rgb(0,0,0)" stroke-miterlimit="10.0" stroke-width="2.478709341572747" fill-opacity="0.0" stroke-opacity="1.0" stroke-linejoin="miter" stroke="rgb(0,0,0)"><path d="M 440.0000,120.0000 l 0.0000,-49.0161 "/></g><g stroke-linecap="butt" fill="rgb(0,0,0)" stroke-miterlimit="10.0" stroke-width="0.0" fill-opacity="1.0" stroke-opacity="1.0" stroke-linejoin="miter" stroke="rgb(0,0,0)"></g><g stroke-linecap="butt" fill="rgb(0,0,0)" stroke-miterlimit="10.0" stroke-width="0.0" fill-opacity="1.0" stroke-opacity="1.0" stroke-linejoin="miter" stroke="rgb(0,0,0)"></g><g stroke-linecap="butt" fill="rgb(0,0,0)" stroke-miterlimit="10.0" stroke-width="0.0" fill-opacity="1.0" stroke-opacity="1.0" stroke-linejoin="miter" stroke="rgb(0,0,0)"><path d="M 440.0000,40.0000 l -11.8859,36.5811 l 11.8859,-6.2488 l 11.8859,6.2488 Z"/></g><g stroke-linecap="butt" fill="rgb(0,0,0)" stroke-miterlimit="10.0" stroke-width="0.0" fill-opacity="1.0" stroke-opacity="1.0" stroke-linejoin="miter" stroke="rgb(0,0,0)"><path d="M 440.0000,70.3323 l -0.0000,0.6516 l -1.2394,-0.0000 l 1.2394,-0.6516 l -0.0000,0.6516 l 1.2394,0.0000 Z"/></g><g stroke-linecap="butt" fill="rgb(173,255,47)" stroke-miterlimit="10.0" stroke-width="0.0" fill-opacity="1.0" stroke-opacity="1.0" stroke-linejoin="miter" stroke="rgb(0,0,0)"><path d="M 160.0000,320.0000 l -0.0000,-80.0000 h -80.0000 l -0.0000,80.0000 Z"/></g><g stroke-linecap="butt" fill="rgb(255,228,225)" stroke-miterlimit="10.0" stroke-width="0.0" fill-opacity="1.0" stroke-opacity="1.0" stroke-linejoin="miter" stroke="rgb(0,0,0)"><path d="M 240.0000,240.0000 l -0.0000,-80.0000 h -80.0000 l -0.0000,80.0000 Z"/></g><g stroke-linecap="butt" fill="rgb(0,0,0)" stroke-miterlimit="10.0" stroke-width="0.0" fill-opacity="1.0" stroke-opacity="1.0" stroke-linejoin="miter" stroke="rgb(0,0,0)"><path d="M 208.0000,200.0000 c 0.0000,-4.4183 -3.5817,-8.0000 -8.0000 -8.0000c -4.4183,-0.0000 -8.0000,3.5817 -8.0000 8.0000c -0.0000,4.4183 3.5817,8.0000 8.0000 8.0000c 4.4183,0.0000 8.0000,-3.5817 8.0000 -8.0000Z"/></g><g stroke-linecap="butt" fill="rgb(176,196,222)" stroke-miterlimit="10.0" stroke-width="0.0" fill-opacity="1.0" stroke-opacity="1.0" stroke-linejoin="miter" stroke="rgb(0,0,0)"><path d="M 160.0000,240.0000 l -0.0000,-80.0000 h -80.0000 l -0.0000,80.0000 Z"/></g><g stroke-linecap="butt" fill="rgb(255,228,225)" stroke-miterlimit="10.0" stroke-width="0.0" fill-opacity="1.0" stroke-opacity="1.0" stroke-linejoin="miter" stroke="rgb(0,0,0)"><path d="M 160.0000,160.0000 l -0.0000,-80.0000 h -80.0000 l -0.0000,80.0000 Z"/></g><g stroke-linecap="butt" fill="rgb(0,0,0)" stroke-miterlimit="10.0" stroke-width="0.0" fill-opacity="1.0" stroke-opacity="1.0" stroke-linejoin="miter" stroke="rgb(0,0,0)"><path d="M 128.0000,120.0000 c 0.0000,-4.4183 -3.5817,-8.0000 -8.0000 -8.0000c -4.4183,-0.0000 -8.0000,3.5817 -8.0000 8.0000c -0.0000,4.4183 3.5817,8.0000 8.0000 8.0000c 4.4183,0.0000 8.0000,-3.5817 8.0000 -8.0000Z"/></g><g stroke-linecap="butt" fill="rgb(0,0,0)" stroke-dashoffset="0.0" stroke-dasharray="8.0,8.0" stroke-miterlimit="10.0" stroke-width="2.478709341572747" fill-opacity="0.0" stroke-opacity="1.0" stroke-linejoin="miter" stroke="rgb(0,0,0)"><path d="M 200.0000,200.0000 h 49.0161 "/></g><g stroke-linecap="butt" fill="rgb(0,0,0)" stroke-dashoffset="0.0" stroke-dasharray="8.0,8.0" stroke-miterlimit="10.0" stroke-width="0.0" fill-opacity="1.0" stroke-opacity="1.0" stroke-linejoin="miter" stroke="rgb(0,0,0)"></g><g stroke-linecap="butt" fill="rgb(0,0,0)" stroke-dashoffset="0.0" stroke-dasharray="8.0,8.0" stroke-miterlimit="10.0" stroke-width="0.0" fill-opacity="1.0" stroke-opacity="1.0" stroke-linejoin="miter" stroke="rgb(0,0,0)"></g><g stroke-linecap="butt" fill="rgb(0,0,0)" stroke-dashoffset="0.0" stroke-dasharray="8.0,8.0" stroke-miterlimit="10.0" stroke-width="0.0" fill-opacity="1.0" stroke-opacity="1.0" stroke-linejoin="miter" stroke="rgb(0,0,0)"><path d="M 280.0000,200.0000 l -36.5811,-11.8859 l 6.2488,11.8859 l -6.2488,11.8859 Z"/></g><g stroke-linecap="butt" fill="rgb(0,0,0)" stroke-dashoffset="0.0" stroke-dasharray="8.0,8.0" stroke-miterlimit="10.0" stroke-width="0.0" fill-opacity="1.0" stroke-opacity="1.0" stroke-linejoin="miter" stroke="rgb(0,0,0)"><path d="M 249.6677,200.0000 h -0.6516 v -1.2394 l 0.6516,1.2394 h -0.6516 v 1.2394 Z"/></g><g stroke-linecap="butt" fill="rgb(0,0,0)" stroke-miterlimit="10.0" stroke-width="2.478709341572747" fill-opacity="0.0" stroke-opacity="1.0" stroke-linejoin="miter" stroke="rgb(0,0,0)"><path d="M 120.0000,120.0000 l 0.0000,-49.0161 "/></g><g stroke-linecap="butt" fill="rgb(0,0,0)" stroke-miterlimit="10.0" stroke-width="0.0" fill-opacity="1.0" stroke-opacity="1.0" stroke-linejoin="miter" stroke="rgb(0,0,0)"></g><g stroke-linecap="butt" fill="rgb(0,0,0)" stroke-miterlimit="10.0" stroke-width="0.0" fill-opacity="1.0" stroke-opacity="1.0" stroke-linejoin="miter" stroke="rgb(0,0,0)"></g><g stroke-linecap="butt" fill="rgb(0,0,0)" stroke-miterlimit="10.0" stroke-width="0.0" fill-opacity="1.0" stroke-opacity="1.0" stroke-linejoin="miter" stroke="rgb(0,0,0)"><path d="M 120.0000,40.0000 l -11.8859,36.5811 l 11.8859,-6.2488 l 11.8859,6.2488 Z"/></g><g stroke-linecap="butt" fill="rgb(0,0,0)" stroke-miterlimit="10.0" stroke-width="0.0" fill-opacity="1.0" stroke-opacity="1.0" stroke-linejoin="miter" stroke="rgb(0,0,0)"><path d="M 120.0000,70.3323 l -0.0000,0.6516 l -1.2394,-0.0000 l 1.2394,-0.6516 l -0.0000,0.6516 l 1.2394,0.0000 Z"/></g></svg>