<?xml version="1.0" encoding="UTF-8"?>
<!DOCTYPE svg PUBLIC "-//W3C//DTD SVG 1.1//EN"
    "http://www.w3.org/Graphics/SVG/1.1/DTD/svg11.dtd"><svg xmlns="http://www.w3.org/2000/svg" viewBox="0.0 0.0 640.0 800.0" height="800.0000" font-size="1" stroke-opacity="1" width="640.0000" xmlns:xlink="http://www.w3.org/1999/xlink" stroke="rgb(0,0,0)" version="1.1"><defs></defs><g stroke-linecap="butt" fill="rgb(238,180,128)" stroke-miterlimit="10.0" stroke-width="0.0" fill-opacity="1.0" stroke-opacity="1.0" stroke-linejoin="miter" stroke="rgb(0,0,0)"><path d="M 576.0000,768.0000 l -0.0000,-32.0000 h -32.0000 l -0.0000,32.0000 Z"/></g><g stroke-linecap="butt" fill="rgb(0,0,0)" stroke-miterlimit="10.0" stroke-width="0.0" fill-opacity="1.0" stroke-opacity="1.0" stroke-linejoin="miter" stroke="rgb(0,0,0)"><path d="M 563.2000,752.0000 c 0.0000,-1.7673 -1.4327,-3.2000 -3.2000 -3.2000c -1.7673,-0.0000 -3.2000,1.4327 -3.2000 3.2000c -0.0000,1.7673 1.4327,3.2000 3.2000 3.2000c 1.7673,0.0000 3.2000,-1.4327 3.2000 -3.2000Z"/></g><g stroke-linecap="butt" fill="rgb(181,222,204)" stroke-miterlimit="10.0" stroke-width="0.0" fill-opacity="1.0" stroke-opacity="1.0" stroke-linejoin="miter" stroke="rgb(0,0,0)"><path d="M 608.0000,736.0000 l -0.0000,-32.0000 h -32.0000 l -0.0000,32.0000 Z"/></g><g stroke-linecap="butt" fill="rgb(238,180,128)" stroke-miterlimit="10.0" stroke-width="0.0" fill-opacity="1.0" stroke-opacity="1.0" stroke-linejoin="miter" stroke="rgb(0,0,0)"><path d="M 576.0000,736.0000 l -0.0000,-32.0000 h -32.0000 l -0.0000,32.0000 Z"/></g><g stroke-linecap="butt" fill="rgb(181,222,204)" stroke-miterlimit="10.0" stroke-width="0.0" fill-opacity="1.0" stroke-opacity="1.0" stroke-linejoin="miter" stroke="rgb(0,0,0)"><path d="M 576.0000,704.0000 l -0.0000,-32.0000 h -32.0000 l -0.0000,32.0000 Z"/></g><g stroke-linecap="butt" fill="rgb(0,0,0)" stroke-miterlimit="10.0" stroke-width="2.862167011199731" fill-opacity="1.0" stroke-opacity="1.0" stroke-linejoin="miter" stroke="rgb(0,0,0)"><path d="M 556.8000,782.1525 l 3.2000,5.5426 l 3.2000,-5.5426 Z"/></g><g stroke-linecap="butt" fill="rgb(0,0,0)" stroke-miterlimit="10.0" stroke-width="2.862167011199731" fill-opacity="0.0" stroke-opacity="1.0" stroke-linejoin="miter" stroke="rgb(0,0,0)"><path d="M 560.0000,752.0000 l -0.0000,32.0000 "/></g><g stroke-linecap="butt" fill="rgb(181,222,204)" stroke-miterlimit="10.0" stroke-width="0.0" fill-opacity="1.0" stroke-opacity="1.0" stroke-linejoin="miter" stroke="rgb(0,0,0)"><path d="M 448.0000,768.0000 l -0.0000,-32.0000 h -32.0000 l -0.0000,32.0000 Z"/></g><g stroke-linecap="butt" fill="rgb(181,222,204)" stroke-miterlimit="10.0" stroke-width="0.0" fill-opacity="1.0" stroke-opacity="1.0" stroke-linejoin="miter" stroke="rgb(0,0,0)"><path d="M 480.0000,736.0000 l -0.0000,-32.0000 h -32.0000 l -0.0000,32.0000 Z"/></g><g stroke-linecap="butt" fill="rgb(238,180,128)" stroke-miterlimit="10.0" stroke-width="0.0" fill-opacity="1.0" stroke-opacity="1.0" stroke-linejoin="miter" stroke="rgb(0,0,0)"><path d="M 448.0000,736.0000 l -0.0000,-32.0000 h -32.0000 l -0.0000,32.0000 Z"/></g><g stroke-linecap="butt" fill="rgb(238,180,128)" stroke-miterlimit="10.0" stroke-width="0.0" fill-opacity="1.0" stroke-opacity="1.0" stroke-linejoin="miter" stroke="rgb(0,0,0)"><path d="M 448.0000,704.0000 l -0.0000,-32.0000 h -32.0000 l -0.0000,32.0000 Z"/></g><g stroke-linecap="butt" fill="rgb(0,0,0)" stroke-miterlimit="10.0" stroke-width="0.0" fill-opacity="1.0" stroke-opacity="1.0" stroke-linejoin="miter" stroke="rgb(0,0,0)"><path d="M 435.2000,688.0000 c 0.0000,-1.7673 -1.4327,-3.2000 -3.2000 -3.2000c -1.7673,-0.0000 -3.2000,1.4327 -3.2000 3.2000c -0.0000,1.7673 1.4327,3.2000 3.2000 3.2000c 1.7673,0.0000 3.2000,-1.4327 3.2000 -3.2000Z"/></g><g stroke-linecap="butt" fill="rgb(0,0,0)" stroke-miterlimit="10.0" stroke-width="2.862167011199731" fill-opacity="1.0" stroke-opacity="1.0" stroke-linejoin="miter" stroke="rgb(0,0,0)"><path d="M 435.2000,657.8475 l -3.2000,-5.5426 l -3.2000,5.5426 Z"/></g><g stroke-linecap="butt" fill="rgb(0,0,0)" stroke-miterlimit="10.0" stroke-width="2.862167011199731" fill-opacity="0.0" stroke-opacity="1.0" stroke-linejoin="miter" stroke="rgb(0,0,0)"><path d="M 432.0000,688.0000 v -32.0000 "/></g><g stroke-linecap="butt" fill="rgb(181,222,204)" stroke-miterlimit="10.0" stroke-width="0.0" fill-opacity="1.0" stroke-opacity="1.0" stroke-linejoin="miter" stroke="rgb(0,0,0)"><path d="M 320.0000,768.0000 l -0.0000,-32.0000 h -32.0000 l -0.0000,32.0000 Z"/></g><g stroke-linecap="butt" fill="rgb(238,180,128)" stroke-miterlimit="10.0" stroke-width="0.0" fill-opacity="1.0" stroke-opacity="1.0" stroke-linejoin="miter" stroke="rgb(0,0,0)"><path d="M 352.0000,736.0000 l -0.0000,-32.0000 h -32.0000 l -0.0000,32.0000 Z"/></g><g stroke-linecap="butt" fill="rgb(0,0,0)" stroke-miterlimit="10.0" stroke-width="0.0" fill-opacity="1.0" stroke-opacity="1.0" stroke-linejoin="miter" stroke="rgb(0,0,0)"><path d="M 339.2000,720.0000 c 0.0000,-1.7673 -1.4327,-3.2000 -3.2000 -3.2000c -1.7673,-0.0000 -3.2000,1.4327 -3.2000 3.2000c -0.0000,1.7673 1.4327,3.2000 3.2000 3.2000c 1.7673,0.0000 3.2000,-1.4327 3.2000 -3.2000Z"/></g><g stroke-linecap="butt" fill="rgb(238,180,128)" stroke-miterlimit="10.0" stroke-width="0.0" fill-opacity="1.0" stroke-opacity="1.0" stroke-linejoin="miter" stroke="rgb(0,0,0)"><path d="M 320.0000,736.0000 l -0.0000,-32.0000 h -32.0000 l -0.0000,32.0000 Z"/></g><g stroke-linecap="butt" fill="rgb(181,222,204)" stroke-miterlimit="10.0" stroke-width="0.0" fill-opacity="1.0" stroke-opacity="1.0" stroke-linejoin="miter" stroke="rgb(0,0,0)"><path d="M 320.0000,704.0000 l -0.0000,-32.0000 h -32.0000 l -0.0000,32.0000 Z"/></g><g stroke-linecap="butt" fill="rgb(0,0,0)" stroke-miterlimit="10.0" stroke-width="2.862167011199731" fill-opacity="1.0" stroke-opacity="1.0" stroke-linejoin="miter" stroke="rgb(0,0,0)"><path d="M 366.1525,723.2000 l 5.5426,-3.2000 l -5.5426,-3.2000 Z"/></g><g stroke-linecap="butt" fill="rgb(0,0,0)" stroke-miterlimit="10.0" stroke-width="2.862167011199731" fill-opacity="0.0" stroke-opacity="1.0" stroke-linejoin="miter" stroke="rgb(0,0,0)"><path d="M 336.0000,720.0000 l 32.0000,0.0000 "/></g><g stroke-linecap="butt" fill="rgb(238,180,128)" stroke-miterlimit="10.0" stroke-width="0.0" fill-opacity="1.0" stroke-opacity="1.0" stroke-linejoin="miter" stroke="rgb(0,0,0)"><path d="M 192.0000,768.0000 l -0.0000,-32.0000 h -32.0000 l -0.0000,32.0000 Z"/></g><g stroke-linecap="butt" fill="rgb(238,180,128)" stroke-miterlimit="10.0" stroke-width="0.0" fill-opacity="1.0" stroke-opacity="1.0" stroke-linejoin="miter" stroke="rgb(0,0,0)"><path d="M 224.0000,736.0000 l -0.0000,-32.0000 h -32.0000 l -0.0000,32.0000 Z"/></g><g stroke-linecap="butt" fill="rgb(0,0,0)" stroke-miterlimit="10.0" stroke-width="0.0" fill-opacity="1.0" stroke-opacity="1.0" stroke-linejoin="miter" stroke="rgb(0,0,0)"><path d="M 211.2000,720.0000 c 0.0000,-1.7673 -1.4327,-3.2000 -3.2000 -3.2000c -1.7673,-0.0000 -3.2000,1.4327 -3.2000 3.2000c -0.0000,1.7673 1.4327,3.2000 3.2000 3.2000c 1.7673,0.0000 3.2000,-1.4327 3.2000 -3.2000Z"/></g><g stroke-linecap="butt" fill="rgb(238,180,128)" stroke-miterlimit="10.0" stroke-width="0.0" fill-opacity="1.0" stroke-opacity="1.0" stroke-linejoin="miter" stroke="rgb(0,0,0)"><path d="M 192.0000,736.0000 l -0.0000,-32.0000 h -32.0000 l -0.0000,32.0000 Z"/></g><g stroke-linecap="butt" fill="rgb(238,180,128)" stroke-miterlimit="10.0" stroke-width="0.0" fill-opacity="1.0" stroke-opacity="1.0" stroke-linejoin="miter" stroke="rgb(0,0,0)"><path d="M 192.0000,704.0000 l -0.0000,-32.0000 h -32.0000 l -0.0000,32.0000 Z"/></g><g stroke-linecap="butt" fill="rgb(0,0,0)" stroke-miterlimit="10.0" stroke-width="2.862167011199731" fill-opacity="1.0" stroke-opacity="1.0" stroke-linejoin="miter" stroke="rgb(0,0,0)"><path d="M 238.1525,723.2000 l 5.5426,-3.2000 l -5.5426,-3.2000 Z"/></g><g stroke-linecap="butt" fill="rgb(0,0,0)" stroke-miterlimit="10.0" stroke-width="2.862167011199731" fill-opacity="0.0" stroke-opacity="1.0" stroke-linejoin="miter" stroke="rgb(0,0,0)"><path d="M 208.0000,720.0000 l 32.0000,0.0000 "/></g><g stroke-linecap="butt" fill="rgb(0,0,0)" font-size="21.333333333333332px" font-style="italic" stroke-miterlimit="10.0" stroke-width="2.862167011199731" fill-opacity="1.0" stroke-opacity="1.0" stroke-linejoin="miter" stroke="rgb(0,0,0)"><text transform="matrix(1.0000,0.0000,0.0000,1.0000,288.0000,576.0000)" dominant-baseline="middle" text-anchor="start" stroke="none">else ⇒ P(A(R)-A(L), |A(F)-A(R)|)</text></g><g stroke-linecap="butt" fill="rgb(0,0,0)" font-size="21.333333333333332px" font-style="italic" stroke-miterlimit="10.0" stroke-width="2.862167011199731" fill-opacity="1.0" stroke-opacity="1.0" stroke-linejoin="miter" stroke="rgb(0,0,0)"><text transform="matrix(1.0000,0.0000,0.0000,1.0000,288.0000,544.0000)" dominant-baseline="middle" text-anchor="start" stroke="none">A(L) ≥ A(R) ⇒ N(A(F))</text></g><g stroke-linecap="butt" fill="rgb(178,183,62)" stroke-miterlimit="10.0" stroke-width="0.0" fill-opacity="1.0" stroke-opacity="1.0" stroke-linejoin="miter" stroke="rgb(0,0,0)"><path d="M 192.0000,608.0000 l -0.0000,-32.0000 h -32.0000 l -0.0000,32.0000 Z"/></g><g stroke-linecap="butt" fill="rgb(0,0,0)" font-size="21.333333333333332px" stroke-miterlimit="10.0" stroke-width="0.0" fill-opacity="1.0" stroke-opacity="1.0" stroke-linejoin="miter" stroke="rgb(0,0,0)"><text transform="matrix(1.0000,0.0000,0.0000,1.0000,176.0000,596.0000)" dominant-baseline="middle" text-anchor="middle" stroke="none">R</text></g><g stroke-linecap="butt" fill="rgb(255,221,0)" stroke-miterlimit="10.0" stroke-width="0.0" fill-opacity="1.0" stroke-opacity="1.0" stroke-linejoin="miter" stroke="rgb(0,0,0)"><path d="M 224.0000,576.0000 l -0.0000,-32.0000 h -32.0000 l -0.0000,32.0000 Z"/></g><g stroke-linecap="butt" fill="rgb(0,0,0)" font-size="21.333333333333332px" stroke-miterlimit="10.0" stroke-width="0.0" fill-opacity="1.0" stroke-opacity="1.0" stroke-linejoin="miter" stroke="rgb(0,0,0)"><text transform="matrix(1.0000,0.0000,0.0000,1.0000,208.0000,564.0000)" dominant-baseline="middle" text-anchor="middle" stroke="none">F</text></g><g stroke-linecap="butt" fill="rgb(181,222,204)" stroke-miterlimit="10.0" stroke-width="0.0" fill-opacity="1.0" stroke-opacity="1.0" stroke-linejoin="miter" stroke="rgb(0,0,0)"><path d="M 192.0000,576.0000 l -0.0000,-32.0000 h -32.0000 l -0.0000,32.0000 Z"/></g><g stroke-linecap="butt" fill="rgb(238,180,128)" stroke-miterlimit="10.0" stroke-width="0.0" fill-opacity="1.0" stroke-opacity="1.0" stroke-linejoin="miter" stroke="rgb(0,0,0)"><path d="M 192.0000,544.0000 l -0.0000,-32.0000 h -32.0000 l -0.0000,32.0000 Z"/></g><g stroke-linecap="butt" fill="rgb(0,0,0)" font-size="21.333333333333332px" stroke-miterlimit="10.0" stroke-width="0.0" fill-opacity="1.0" stroke-opacity="1.0" stroke-linejoin="miter" stroke="rgb(0,0,0)"><text transform="matrix(1.0000,0.0000,0.0000,1.0000,176.0000,532.0000)" dominant-baseline="middle" text-anchor="middle" stroke="none">L</text></g><g stroke-linecap="butt" fill="rgb(238,180,128)" stroke-miterlimit="10.0" stroke-width="0.0" fill-opacity="1.0" stroke-opacity="1.0" stroke-linejoin="miter" stroke="rgb(0,0,0)"><path d="M 448.0000,448.0000 l -0.0000,-32.0000 h -32.0000 l -0.0000,32.0000 Z"/></g><g stroke-linecap="butt" fill="rgb(0,0,0)" stroke-miterlimit="10.0" stroke-width="0.0" fill-opacity="1.0" stroke-opacity="1.0" stroke-linejoin="miter" stroke="rgb(0,0,0)"><path d="M 435.2000,432.0000 c 0.0000,-1.7673 -1.4327,-3.2000 -3.2000 -3.2000c -1.7673,-0.0000 -3.2000,1.4327 -3.2000 3.2000c -0.0000,1.7673 1.4327,3.2000 3.2000 3.2000c 1.7673,0.0000 3.2000,-1.4327 3.2000 -3.2000Z"/></g><g stroke-linecap="butt" fill="rgb(238,180,128)" stroke-miterlimit="10.0" stroke-width="0.0" fill-opacity="1.0" stroke-opacity="1.0" stroke-linejoin="miter" stroke="rgb(0,0,0)"><path d="M 480.0000,416.0000 l -0.0000,-32.0000 h -32.0000 l -0.0000,32.0000 Z"/></g><g stroke-linecap="butt" fill="rgb(0,0,0)" stroke-miterlimit="10.0" stroke-width="0.0" fill-opacity="1.0" stroke-opacity="1.0" stroke-linejoin="miter" stroke="rgb(0,0,0)"><path d="M 467.2000,400.0000 c 0.0000,-1.7673 -1.4327,-3.2000 -3.2000 -3.2000c -1.7673,-0.0000 -3.2000,1.4327 -3.2000 3.2000c -0.0000,1.7673 1.4327,3.2000 3.2000 3.2000c 1.7673,0.0000 3.2000,-1.4327 3.2000 -3.2000Z"/></g><g stroke-linecap="butt" fill="rgb(255,221,0)" stroke-miterlimit="10.0" stroke-width="0.0" fill-opacity="1.0" stroke-opacity="1.0" stroke-linejoin="miter" stroke="rgb(0,0,0)"><path d="M 448.0000,416.0000 l -0.0000,-32.0000 h -32.0000 l -0.0000,32.0000 Z"/></g><g stroke-linecap="butt" fill="rgb(181,222,204)" stroke-miterlimit="10.0" stroke-width="0.0" fill-opacity="1.0" stroke-opacity="1.0" stroke-linejoin="miter" stroke="rgb(0,0,0)"><path d="M 448.0000,384.0000 l -0.0000,-32.0000 h -32.0000 l -0.0000,32.0000 Z"/></g><g stroke-linecap="butt" fill="rgb(0,0,0)" stroke-miterlimit="10.0" stroke-width="2.862167011199731" fill-opacity="1.0" stroke-opacity="1.0" stroke-linejoin="miter" stroke="rgb(0,0,0)"><path d="M 428.8000,462.1525 l 3.2000,5.5426 l 3.2000,-5.5426 Z"/></g><g stroke-linecap="butt" fill="rgb(0,0,0)" stroke-dashoffset="0.0" stroke-dasharray="3.2,3.2" stroke-miterlimit="10.0" stroke-width="2.862167011199731" fill-opacity="0.0" stroke-opacity="1.0" stroke-linejoin="miter" stroke="rgb(0,0,0)"><path d="M 432.0000,432.0000 l -0.0000,32.0000 "/></g><g stroke-linecap="butt" fill="rgb(0,0,0)" stroke-miterlimit="10.0" stroke-width="2.862167011199731" fill-opacity="1.0" stroke-opacity="1.0" stroke-linejoin="miter" stroke="rgb(0,0,0)"><path d="M 494.1525,403.2000 l 5.5426,-3.2000 l -5.5426,-3.2000 Z"/></g><g stroke-linecap="butt" fill="rgb(0,0,0)" stroke-miterlimit="10.0" stroke-width="2.862167011199731" fill-opacity="0.0" stroke-opacity="1.0" stroke-linejoin="miter" stroke="rgb(0,0,0)"><path d="M 464.0000,400.0000 l 32.0000,0.0000 "/></g><g stroke-linecap="butt" fill="rgb(238,180,128)" stroke-miterlimit="10.0" stroke-width="0.0" fill-opacity="1.0" stroke-opacity="1.0" stroke-linejoin="miter" stroke="rgb(0,0,0)"><path d="M 320.0000,448.0000 l -0.0000,-32.0000 h -32.0000 l -0.0000,32.0000 Z"/></g><g stroke-linecap="butt" fill="rgb(0,0,0)" stroke-miterlimit="10.0" stroke-width="0.0" fill-opacity="1.0" stroke-opacity="1.0" stroke-linejoin="miter" stroke="rgb(0,0,0)"><path d="M 307.2000,432.0000 c 0.0000,-1.7673 -1.4327,-3.2000 -3.2000 -3.2000c -1.7673,-0.0000 -3.2000,1.4327 -3.2000 3.2000c -0.0000,1.7673 1.4327,3.2000 3.2000 3.2000c 1.7673,0.0000 3.2000,-1.4327 3.2000 -3.2000Z"/></g><g stroke-linecap="butt" fill="rgb(255,221,0)" stroke-miterlimit="10.0" stroke-width="0.0" fill-opacity="1.0" stroke-opacity="1.0" stroke-linejoin="miter" stroke="rgb(0,0,0)"><path d="M 352.0000,416.0000 l -0.0000,-32.0000 h -32.0000 l -0.0000,32.0000 Z"/></g><g stroke-linecap="butt" fill="rgb(181,222,204)" stroke-miterlimit="10.0" stroke-width="0.0" fill-opacity="1.0" stroke-opacity="1.0" stroke-linejoin="miter" stroke="rgb(0,0,0)"><path d="M 320.0000,416.0000 l -0.0000,-32.0000 h -32.0000 l -0.0000,32.0000 Z"/></g><g stroke-linecap="butt" fill="rgb(238,180,128)" stroke-miterlimit="10.0" stroke-width="0.0" fill-opacity="1.0" stroke-opacity="1.0" stroke-linejoin="miter" stroke="rgb(0,0,0)"><path d="M 320.0000,384.0000 l -0.0000,-32.0000 h -32.0000 l -0.0000,32.0000 Z"/></g><g stroke-linecap="butt" fill="rgb(0,0,0)" stroke-miterlimit="10.0" stroke-width="0.0" fill-opacity="1.0" stroke-opacity="1.0" stroke-linejoin="miter" stroke="rgb(0,0,0)"><path d="M 307.2000,368.0000 c 0.0000,-1.7673 -1.4327,-3.2000 -3.2000 -3.2000c -1.7673,-0.0000 -3.2000,1.4327 -3.2000 3.2000c -0.0000,1.7673 1.4327,3.2000 3.2000 3.2000c 1.7673,0.0000 3.2000,-1.4327 3.2000 -3.2000Z"/></g><g stroke-linecap="butt" fill="rgb(0,0,0)" stroke-miterlimit="10.0" stroke-width="2.862167011199731" fill-opacity="1.0" stroke-opacity="1.0" stroke-linejoin="miter" stroke="rgb(0,0,0)"><path d="M 300.8000,462.1525 l 3.2000,5.5426 l 3.2000,-5.5426 Z"/></g><g stroke-linecap="butt" fill="rgb(0,0,0)" stroke-dashoffset="0.0" stroke-dasharray="3.2,3.2" stroke-miterlimit="10.0" stroke-width="2.862167011199731" fill-opacity="0.0" stroke-opacity="1.0" stroke-linejoin="miter" stroke="rgb(0,0,0)"><path d="M 304.0000,432.0000 l -0.0000,32.0000 "/></g><g stroke-linecap="butt" fill="rgb(0,0,0)" stroke-miterlimit="10.0" stroke-width="2.862167011199731" fill-opacity="1.0" stroke-opacity="1.0" stroke-linejoin="miter" stroke="rgb(0,0,0)"><path d="M 307.2000,337.8475 l -3.2000,-5.5426 l -3.2000,5.5426 Z"/></g><g stroke-linecap="butt" fill="rgb(0,0,0)" stroke-miterlimit="10.0" stroke-width="2.862167011199731" fill-opacity="0.0" stroke-opacity="1.0" stroke-linejoin="miter" stroke="rgb(0,0,0)"><path d="M 304.0000,368.0000 v -32.0000 "/></g><g stroke-linecap="butt" fill="rgb(255,221,0)" stroke-miterlimit="10.0" stroke-width="0.0" fill-opacity="1.0" stroke-opacity="1.0" stroke-linejoin="miter" stroke="rgb(0,0,0)"><path d="M 192.0000,448.0000 l -0.0000,-32.0000 h -32.0000 l -0.0000,32.0000 Z"/></g><g stroke-linecap="butt" fill="rgb(238,180,128)" stroke-miterlimit="10.0" stroke-width="0.0" fill-opacity="1.0" stroke-opacity="1.0" stroke-linejoin="miter" stroke="rgb(0,0,0)"><path d="M 224.0000,416.0000 l -0.0000,-32.0000 h -32.0000 l -0.0000,32.0000 Z"/></g><g stroke-linecap="butt" fill="rgb(0,0,0)" stroke-miterlimit="10.0" stroke-width="0.0" fill-opacity="1.0" stroke-opacity="1.0" stroke-linejoin="miter" stroke="rgb(0,0,0)"><path d="M 211.2000,400.0000 c 0.0000,-1.7673 -1.4327,-3.2000 -3.2000 -3.2000c -1.7673,-0.0000 -3.2000,1.4327 -3.2000 3.2000c -0.0000,1.7673 1.4327,3.2000 3.2000 3.2000c 1.7673,0.0000 3.2000,-1.4327 3.2000 -3.2000Z"/></g><g stroke-linecap="butt" fill="rgb(181,222,204)" stroke-miterlimit="10.0" stroke-width="0.0" fill-opacity="1.0" stroke-opacity="1.0" stroke-linejoin="miter" stroke="rgb(0,0,0)"><path d="M 192.0000,416.0000 l -0.0000,-32.0000 h -32.0000 l -0.0000,32.0000 Z"/></g><g stroke-linecap="butt" fill="rgb(238,180,128)" stroke-miterlimit="10.0" stroke-width="0.0" fill-opacity="1.0" stroke-opacity="1.0" stroke-linejoin="miter" stroke="rgb(0,0,0)"><path d="M 192.0000,384.0000 l -0.0000,-32.0000 h -32.0000 l -0.0000,32.0000 Z"/></g><g stroke-linecap="butt" fill="rgb(0,0,0)" stroke-miterlimit="10.0" stroke-width="0.0" fill-opacity="1.0" stroke-opacity="1.0" stroke-linejoin="miter" stroke="rgb(0,0,0)"><path d="M 179.2000,368.0000 c 0.0000,-1.7673 -1.4327,-3.2000 -3.2000 -3.2000c -1.7673,-0.0000 -3.2000,1.4327 -3.2000 3.2000c -0.0000,1.7673 1.4327,3.2000 3.2000 3.2000c 1.7673,0.0000 3.2000,-1.4327 3.2000 -3.2000Z"/></g><g stroke-linecap="butt" fill="rgb(0,0,0)" stroke-miterlimit="10.0" stroke-width="2.862167011199731" fill-opacity="1.0" stroke-opacity="1.0" stroke-linejoin="miter" stroke="rgb(0,0,0)"><path d="M 238.1525,403.2000 l 5.5426,-3.2000 l -5.5426,-3.2000 Z"/></g><g stroke-linecap="butt" fill="rgb(0,0,0)" stroke-dashoffset="0.0" stroke-dasharray="3.2,3.2" stroke-miterlimit="10.0" stroke-width="2.862167011199731" fill-opacity="0.0" stroke-opacity="1.0" stroke-linejoin="miter" stroke="rgb(0,0,0)"><path d="M 208.0000,400.0000 l 32.0000,0.0000 "/></g><g stroke-linecap="butt" fill="rgb(0,0,0)" stroke-miterlimit="10.0" stroke-width="2.862167011199731" fill-opacity="1.0" stroke-opacity="1.0" stroke-linejoin="miter" stroke="rgb(0,0,0)"><path d="M 179.2000,337.8475 l -3.2000,-5.5426 l -3.2000,5.5426 Z"/></g><g stroke-linecap="butt" fill="rgb(0,0,0)" stroke-miterlimit="10.0" stroke-width="2.862167011199731" fill-opacity="0.0" stroke-opacity="1.0" stroke-linejoin="miter" stroke="rgb(0,0,0)"><path d="M 176.0000,368.0000 v -32.0000 "/></g><g stroke-linecap="butt" fill="rgb(255,221,0)" stroke-miterlimit="10.0" stroke-width="0.0" fill-opacity="1.0" stroke-opacity="1.0" stroke-linejoin="miter" stroke="rgb(0,0,0)"><path d="M 448.0000,288.0000 l -0.0000,-32.0000 h -32.0000 l -0.0000,32.0000 Z"/></g><g stroke-linecap="butt" fill="rgb(0,0,0)" font-size="21.333333333333332px" stroke-miterlimit="10.0" stroke-width="0.0" fill-opacity="1.0" stroke-opacity="1.0" stroke-linejoin="miter" stroke="rgb(0,0,0)"><text transform="matrix(1.0000,0.0000,0.0000,1.0000,432.0000,276.0000)" dominant-baseline="middle" text-anchor="middle" stroke="none">R</text></g><g stroke-linecap="butt" fill="rgb(181,222,204)" stroke-miterlimit="10.0" stroke-width="0.0" fill-opacity="1.0" stroke-opacity="1.0" stroke-linejoin="miter" stroke="rgb(0,0,0)"><path d="M 480.0000,256.0000 l -0.0000,-32.0000 h -32.0000 l -0.0000,32.0000 Z"/></g><g stroke-linecap="butt" fill="rgb(238,180,128)" stroke-miterlimit="10.0" stroke-width="0.0" fill-opacity="1.0" stroke-opacity="1.0" stroke-linejoin="miter" stroke="rgb(0,0,0)"><path d="M 448.0000,256.0000 l -0.0000,-32.0000 h -32.0000 l -0.0000,32.0000 Z"/></g><g stroke-linecap="butt" fill="rgb(238,180,128)" stroke-miterlimit="10.0" stroke-width="0.0" fill-opacity="1.0" stroke-opacity="1.0" stroke-linejoin="miter" stroke="rgb(0,0,0)"><path d="M 448.0000,224.0000 l -0.0000,-32.0000 h -32.0000 l -0.0000,32.0000 Z"/></g><g stroke-linecap="butt" fill="rgb(0,0,0)" stroke-miterlimit="10.0" stroke-width="0.0" fill-opacity="1.0" stroke-opacity="1.0" stroke-linejoin="miter" stroke="rgb(0,0,0)"><path d="M 435.2000,208.0000 c 0.0000,-1.7673 -1.4327,-3.2000 -3.2000 -3.2000c -1.7673,-0.0000 -3.2000,1.4327 -3.2000 3.2000c -0.0000,1.7673 1.4327,3.2000 3.2000 3.2000c 1.7673,0.0000 3.2000,-1.4327 3.2000 -3.2000Z"/></g><g stroke-linecap="butt" fill="rgb(0,0,0)" stroke-miterlimit="10.0" stroke-width="2.862167011199731" fill-opacity="1.0" stroke-opacity="1.0" stroke-linejoin="miter" stroke="rgb(0,0,0)"><path d="M 435.2000,177.8475 l -3.2000,-5.5426 l -3.2000,5.5426 Z"/></g><g stroke-linecap="butt" fill="rgb(0,0,0)" stroke-miterlimit="10.0" stroke-width="2.862167011199731" fill-opacity="0.0" stroke-opacity="1.0" stroke-linejoin="miter" stroke="rgb(0,0,0)"><path d="M 432.0000,208.0000 v -32.0000 "/></g><g stroke-linecap="butt" fill="rgb(255,221,0)" stroke-miterlimit="10.0" stroke-width="0.0" fill-opacity="1.0" stroke-opacity="1.0" stroke-linejoin="miter" stroke="rgb(0,0,0)"><path d="M 320.0000,288.0000 l -0.0000,-32.0000 h -32.0000 l -0.0000,32.0000 Z"/></g><g stroke-linecap="butt" fill="rgb(238,180,128)" stroke-miterlimit="10.0" stroke-width="0.0" fill-opacity="1.0" stroke-opacity="1.0" stroke-linejoin="miter" stroke="rgb(0,0,0)"><path d="M 352.0000,256.0000 l -0.0000,-32.0000 h -32.0000 l -0.0000,32.0000 Z"/></g><g stroke-linecap="butt" fill="rgb(0,0,0)" stroke-miterlimit="10.0" stroke-width="0.0" fill-opacity="1.0" stroke-opacity="1.0" stroke-linejoin="miter" stroke="rgb(0,0,0)"><path d="M 339.2000,240.0000 c 0.0000,-1.7673 -1.4327,-3.2000 -3.2000 -3.2000c -1.7673,-0.0000 -3.2000,1.4327 -3.2000 3.2000c -0.0000,1.7673 1.4327,3.2000 3.2000 3.2000c 1.7673,0.0000 3.2000,-1.4327 3.2000 -3.2000Z"/></g><g stroke-linecap="butt" fill="rgb(238,180,128)" stroke-miterlimit="10.0" stroke-width="0.0" fill-opacity="1.0" stroke-opacity="1.0" stroke-linejoin="miter" stroke="rgb(0,0,0)"><path d="M 320.0000,256.0000 l -0.0000,-32.0000 h -32.0000 l -0.0000,32.0000 Z"/></g><g stroke-linecap="butt" fill="rgb(0,0,0)" font-size="21.333333333333332px" stroke-miterlimit="10.0" stroke-width="0.0" fill-opacity="1.0" stroke-opacity="1.0" stroke-linejoin="miter" stroke="rgb(0,0,0)"><text transform="matrix(1.0000,0.0000,0.0000,1.0000,304.0000,244.0000)" dominant-baseline="middle" text-anchor="middle" stroke="none">C</text></g><g stroke-linecap="butt" fill="rgb(181,222,204)" stroke-miterlimit="10.0" stroke-width="0.0" fill-opacity="1.0" stroke-opacity="1.0" stroke-linejoin="miter" stroke="rgb(0,0,0)"><path d="M 320.0000,224.0000 l -0.0000,-32.0000 h -32.0000 l -0.0000,32.0000 Z"/></g><g stroke-linecap="butt" fill="rgb(0,0,0)" stroke-miterlimit="10.0" stroke-width="2.862167011199731" fill-opacity="1.0" stroke-opacity="1.0" stroke-linejoin="miter" stroke="rgb(0,0,0)"><path d="M 366.1525,243.2000 l 5.5426,-3.2000 l -5.5426,-3.2000 Z"/></g><g stroke-linecap="butt" fill="rgb(0,0,0)" stroke-miterlimit="10.0" stroke-width="2.862167011199731" fill-opacity="0.0" stroke-opacity="1.0" stroke-linejoin="miter" stroke="rgb(0,0,0)"><path d="M 336.0000,240.0000 l 32.0000,0.0000 "/></g><g stroke-linecap="butt" fill="rgb(238,180,128)" stroke-miterlimit="10.0" stroke-width="0.0" fill-opacity="1.0" stroke-opacity="1.0" stroke-linejoin="miter" stroke="rgb(0,0,0)"><path d="M 192.0000,288.0000 l -0.0000,-32.0000 h -32.0000 l -0.0000,32.0000 Z"/></g><g stroke-linecap="butt" fill="rgb(0,0,0)" stroke-miterlimit="10.0" stroke-width="0.0" fill-opacity="1.0" stroke-opacity="1.0" stroke-linejoin="miter" stroke="rgb(0,0,0)"><path d="M 179.2000,272.0000 c 0.0000,-1.7673 -1.4327,-3.2000 -3.2000 -3.2000c -1.7673,-0.0000 -3.2000,1.4327 -3.2000 3.2000c -0.0000,1.7673 1.4327,3.2000 3.2000 3.2000c 1.7673,0.0000 3.2000,-1.4327 3.2000 -3.2000Z"/></g><g stroke-linecap="butt" fill="rgb(181,222,204)" stroke-miterlimit="10.0" stroke-width="0.0" fill-opacity="1.0" stroke-opacity="1.0" stroke-linejoin="miter" stroke="rgb(0,0,0)"><path d="M 224.0000,256.0000 l -0.0000,-32.0000 h -32.0000 l -0.0000,32.0000 Z"/></g><g stroke-linecap="butt" fill="rgb(238,180,128)" stroke-miterlimit="10.0" stroke-width="0.0" fill-opacity="1.0" stroke-opacity="1.0" stroke-linejoin="miter" stroke="rgb(0,0,0)"><path d="M 192.0000,256.0000 l -0.0000,-32.0000 h -32.0000 l -0.0000,32.0000 Z"/></g><g stroke-linecap="butt" fill="rgb(255,221,0)" stroke-miterlimit="10.0" stroke-width="0.0" fill-opacity="1.0" stroke-opacity="1.0" stroke-linejoin="miter" stroke="rgb(0,0,0)"><path d="M 192.0000,224.0000 l -0.0000,-32.0000 h -32.0000 l -0.0000,32.0000 Z"/></g><g stroke-linecap="butt" fill="rgb(0,0,0)" font-size="21.333333333333332px" stroke-miterlimit="10.0" stroke-width="0.0" fill-opacity="1.0" stroke-opacity="1.0" stroke-linejoin="miter" stroke="rgb(0,0,0)"><text transform="matrix(1.0000,0.0000,0.0000,1.0000,176.0000,212.0000)" dominant-baseline="middle" text-anchor="middle" stroke="none">L</text></g><g stroke-linecap="butt" fill="rgb(0,0,0)" stroke-miterlimit="10.0" stroke-width="2.862167011199731" fill-opacity="1.0" stroke-opacity="1.0" stroke-linejoin="miter" stroke="rgb(0,0,0)"><path d="M 172.8000,302.1525 l 3.2000,5.5426 l 3.2000,-5.5426 Z"/></g><g stroke-linecap="butt" fill="rgb(0,0,0)" stroke-miterlimit="10.0" stroke-width="2.862167011199731" fill-opacity="0.0" stroke-opacity="1.0" stroke-linejoin="miter" stroke="rgb(0,0,0)"><path d="M 176.0000,272.0000 l -0.0000,32.0000 "/></g><g stroke-linecap="butt" fill="rgb(238,180,128)" stroke-miterlimit="10.0" stroke-width="0.0" fill-opacity="1.0" stroke-opacity="1.0" stroke-linejoin="miter" stroke="rgb(0,0,0)"><path d="M 576.0000,128.0000 l -0.0000,-32.0000 h -32.0000 l -0.0000,32.0000 Z"/></g><g stroke-linecap="butt" fill="rgb(0,0,0)" font-size="21.333333333333332px" stroke-miterlimit="10.0" stroke-width="0.0" fill-opacity="1.0" stroke-opacity="1.0" stroke-linejoin="miter" stroke="rgb(0,0,0)"><text transform="matrix(1.0000,0.0000,0.0000,1.0000,560.0000,116.0000)" dominant-baseline="middle" text-anchor="middle" stroke="none">R</text></g><g stroke-linecap="butt" fill="rgb(181,222,204)" stroke-miterlimit="10.0" stroke-width="0.0" fill-opacity="1.0" stroke-opacity="1.0" stroke-linejoin="miter" stroke="rgb(0,0,0)"><path d="M 608.0000,96.0000 l -0.0000,-32.0000 h -32.0000 l -0.0000,32.0000 Z"/></g><g stroke-linecap="butt" fill="rgb(181,222,204)" stroke-miterlimit="10.0" stroke-width="0.0" fill-opacity="1.0" stroke-opacity="1.0" stroke-linejoin="miter" stroke="rgb(0,0,0)"><path d="M 576.0000,96.0000 l -0.0000,-32.0000 h -32.0000 l -0.0000,32.0000 Z"/></g><g stroke-linecap="butt" fill="rgb(181,222,204)" stroke-miterlimit="10.0" stroke-width="0.0" fill-opacity="1.0" stroke-opacity="1.0" stroke-linejoin="miter" stroke="rgb(0,0,0)"><path d="M 576.0000,64.0000 l -0.0000,-32.0000 h -32.0000 l -0.0000,32.0000 Z"/></g><g stroke-linecap="butt" fill="rgb(181,222,204)" stroke-miterlimit="10.0" stroke-width="0.0" fill-opacity="1.0" stroke-opacity="1.0" stroke-linejoin="miter" stroke="rgb(0,0,0)"><path d="M 448.0000,128.0000 l -0.0000,-32.0000 h -32.0000 l -0.0000,32.0000 Z"/></g><g stroke-linecap="butt" fill="rgb(238,180,128)" stroke-miterlimit="10.0" stroke-width="0.0" fill-opacity="1.0" stroke-opacity="1.0" stroke-linejoin="miter" stroke="rgb(0,0,0)"><path d="M 480.0000,96.0000 l -0.0000,-32.0000 h -32.0000 l -0.0000,32.0000 Z"/></g><g stroke-linecap="butt" fill="rgb(0,0,0)" font-size="21.333333333333332px" stroke-miterlimit="10.0" stroke-width="0.0" fill-opacity="1.0" stroke-opacity="1.0" stroke-linejoin="miter" stroke="rgb(0,0,0)"><text transform="matrix(1.0000,0.0000,0.0000,1.0000,464.0000,84.0000)" dominant-baseline="middle" text-anchor="middle" stroke="none">F</text></g><g stroke-linecap="butt" fill="rgb(181,222,204)" stroke-miterlimit="10.0" stroke-width="0.0" fill-opacity="1.0" stroke-opacity="1.0" stroke-linejoin="miter" stroke="rgb(0,0,0)"><path d="M 448.0000,96.0000 l -0.0000,-32.0000 h -32.0000 l -0.0000,32.0000 Z"/></g><g stroke-linecap="butt" fill="rgb(181,222,204)" stroke-miterlimit="10.0" stroke-width="0.0" fill-opacity="1.0" stroke-opacity="1.0" stroke-linejoin="miter" stroke="rgb(0,0,0)"><path d="M 448.0000,64.0000 l -0.0000,-32.0000 h -32.0000 l -0.0000,32.0000 Z"/></g><g stroke-linecap="butt" fill="rgb(181,222,204)" stroke-miterlimit="10.0" stroke-width="0.0" fill-opacity="1.0" stroke-opacity="1.0" stroke-linejoin="miter" stroke="rgb(0,0,0)"><path d="M 320.0000,128.0000 l -0.0000,-32.0000 h -32.0000 l -0.0000,32.0000 Z"/></g><g stroke-linecap="butt" fill="rgb(181,222,204)" stroke-miterlimit="10.0" stroke-width="0.0" fill-opacity="1.0" stroke-opacity="1.0" stroke-linejoin="miter" stroke="rgb(0,0,0)"><path d="M 352.0000,96.0000 l -0.0000,-32.0000 h -32.0000 l -0.0000,32.0000 Z"/></g><g stroke-linecap="butt" fill="rgb(238,180,128)" stroke-miterlimit="10.0" stroke-width="0.0" fill-opacity="1.0" stroke-opacity="1.0" stroke-linejoin="miter" stroke="rgb(0,0,0)"><path d="M 320.0000,96.0000 l -0.0000,-32.0000 h -32.0000 l -0.0000,32.0000 Z"/></g><g stroke-linecap="butt" fill="rgb(0,0,0)" font-size="21.333333333333332px" stroke-miterlimit="10.0" stroke-width="0.0" fill-opacity="1.0" stroke-opacity="1.0" stroke-linejoin="miter" stroke="rgb(0,0,0)"><text transform="matrix(1.0000,0.0000,0.0000,1.0000,304.0000,84.0000)" dominant-baseline="middle" text-anchor="middle" stroke="none">C</text></g><g stroke-linecap="butt" fill="rgb(181,222,204)" stroke-miterlimit="10.0" stroke-width="0.0" fill-opacity="1.0" stroke-opacity="1.0" stroke-linejoin="miter" stroke="rgb(0,0,0)"><path d="M 320.0000,64.0000 l -0.0000,-32.0000 h -32.0000 l -0.0000,32.0000 Z"/></g><g stroke-linecap="butt" fill="rgb(181,222,204)" stroke-miterlimit="10.0" stroke-width="0.0" fill-opacity="1.0" stroke-opacity="1.0" stroke-linejoin="miter" stroke="rgb(0,0,0)"><path d="M 192.0000,128.0000 l -0.0000,-32.0000 h -32.0000 l -0.0000,32.0000 Z"/></g><g stroke-linecap="butt" fill="rgb(181,222,204)" stroke-miterlimit="10.0" stroke-width="0.0" fill-opacity="1.0" stroke-opacity="1.0" stroke-linejoin="miter" stroke="rgb(0,0,0)"><path d="M 224.0000,96.0000 l -0.0000,-32.0000 h -32.0000 l -0.0000,32.0000 Z"/></g><g stroke-linecap="butt" fill="rgb(181,222,204)" stroke-miterlimit="10.0" stroke-width="0.0" fill-opacity="1.0" stroke-opacity="1.0" stroke-linejoin="miter" stroke="rgb(0,0,0)"><path d="M 192.0000,96.0000 l -0.0000,-32.0000 h -32.0000 l -0.0000,32.0000 Z"/></g><g stroke-linecap="butt" fill="rgb(238,180,128)" stroke-miterlimit="10.0" stroke-width="0.0" fill-opacity="1.0" stroke-opacity="1.0" stroke-linejoin="miter" stroke="rgb(0,0,0)"><path d="M 192.0000,64.0000 l -0.0000,-32.0000 h -32.0000 l -0.0000,32.0000 Z"/></g><g stroke-linecap="butt" fill="rgb(0,0,0)" font-size="21.333333333333332px" stroke-miterlimit="10.0" stroke-width="0.0" fill-opacity="1.0" stroke-opacity="1.0" stroke-linejoin="miter" stroke="rgb(0,0,0)"><text transform="matrix(1.0000,0.0000,0.0000,1.0000,176.0000,52.0000)" dominant-baseline="middle" text-anchor="middle" stroke="none">L</text></g><g stroke-linecap="butt" fill="rgb(0,0,0)" font-size="32.0px" font-style="italic" stroke-miterlimit="10.0" stroke-width="2.862167011199731" fill-opacity="1.0" stroke-opacity="1.0" stroke-linejoin="miter" stroke="rgb(0,0,0)"><text transform="matrix(1.0000,0.0000,0.0000,1.0000,64.0000,720.0000)" dominant-baseline="middle" text-anchor="middle" stroke="none">I</text></g><g stroke-linecap="butt" font-family="monospace" fill="rgb(0,0,0)" font-size="32.0px" stroke-miterlimit="10.0" stroke-width="2.862167011199731" fill-opacity="1.0" stroke-opacity="1.0" stroke-linejoin="miter" stroke="rgb(0,0,0)"><text transform="matrix(1.0000,0.0000,0.0000,1.0000,64.0000,560.0000)" dominant-baseline="middle" text-anchor="middle" stroke="none">sym</text></g><g stroke-linecap="butt" fill="rgb(0,0,0)" font-size="32.0px" font-style="italic" stroke-miterlimit="10.0" stroke-width="2.862167011199731" fill-opacity="1.0" stroke-opacity="1.0" stroke-linejoin="miter" stroke="rgb(0,0,0)"><text transform="matrix(1.0000,0.0000,0.0000,1.0000,64.0000,400.0000)" dominant-baseline="middle" text-anchor="middle" stroke="none">(f x)</text></g><g stroke-linecap="butt" fill="rgb(0,0,0)" font-size="32.0px" font-style="italic" stroke-miterlimit="10.0" stroke-width="2.862167011199731" fill-opacity="1.0" stroke-opacity="1.0" stroke-linejoin="miter" stroke="rgb(0,0,0)"><text transform="matrix(1.0000,0.0000,0.0000,1.0000,64.0000,240.0000)" dominant-baseline="middle" text-anchor="middle" stroke="none">(λv.e)</text></g><g stroke-linecap="butt" fill="rgb(0,0,0)" font-size="32.0px" font-style="italic" stroke-miterlimit="10.0" stroke-width="2.862167011199731" fill-opacity="1.0" stroke-opacity="1.0" stroke-linejoin="miter" stroke="rgb(0,0,0)"><text transform="matrix(1.0000,0.0000,0.0000,1.0000,64.0000,80.0000)" dominant-baseline="middle" text-anchor="middle" stroke="none">x</text></g></svg>