<?xml version="1.0" encoding="UTF-8"?>
<!DOCTYPE svg PUBLIC "-//W3C//DTD SVG 1.1//EN"
    "http://www.w3.org/Graphics/SVG/1.1/DTD/svg11.dtd"><svg font-size="1" viewBox="0.0 0.0 1440.0 400.0" stroke="rgb(0,0,0)" xmlns="http://www.w3.org/2000/svg" width="1440.0000" stroke-opacity="1" height="400.0000" version="1.1" xmlns:xlink="http://www.w3.org/1999/xlink"><defs></defs><g stroke-linejoin="miter" fill-opacity="1.0" fill="rgb(178,183,62)" stroke="rgb(0,0,0)" stroke-linecap="butt" stroke-miterlimit="10.0" stroke-opacity="1.0" stroke-width="0.0"><path d="M 1360.0000,160.0000 l -80.0000,0.0000 l -0.0000,80.0000 l 80.0000,0.0000 Z"/></g><g stroke-linejoin="miter" fill-opacity="1.0" fill="rgb(255,221,0)" stroke="rgb(0,0,0)" stroke-linecap="butt" stroke-miterlimit="10.0" stroke-opacity="1.0" stroke-width="0.0"><path d="M 1280.0000,80.0000 l -80.0000,0.0000 l -0.0000,80.0000 l 80.0000,0.0000 Z"/></g><g stroke-linejoin="miter" fill-opacity="1.0" fill="rgb(181,222,204)" stroke="rgb(0,0,0)" stroke-linecap="butt" stroke-miterlimit="10.0" stroke-opacity="1.0" stroke-width="0.0"><path d="M 1280.0000,160.0000 l -80.0000,0.0000 l -0.0000,80.0000 l 80.0000,0.0000 Z"/></g><g stroke-linejoin="miter" fill-opacity="1.0" fill="rgb(0,0,0)" stroke="rgb(0,0,0)" stroke-linecap="butt" stroke-miterlimit="10.0" stroke-opacity="1.0" stroke-width="0.0"><path d="M 1240.0000,192.0000 c -4.4183,-0.0000 -8.0000,3.5817 -8.0000 8.0000c -0.0000,4.4183 3.5817,8.0000 8.0000 8.0000c 4.4183,0.0000 8.0000,-3.5817 8.0000 -8.0000c 0.0000,-4.4183 -3.5817,-8.0000 -8.0000 -8.0000Z"/></g><g stroke-linejoin="miter" fill-opacity="1.0" fill="rgb(238,180,128)" stroke="rgb(0,0,0)" stroke-linecap="butt" stroke-miterlimit="10.0" stroke-opacity="1.0" stroke-width="0.0"><path d="M 1200.0000,160.0000 l -80.0000,0.0000 l -0.0000,80.0000 l 80.0000,0.0000 Z"/></g><g stroke-linejoin="miter" fill-opacity="1.0" fill="rgb(0,0,0)" stroke="rgb(0,0,0)" stroke-linecap="butt" stroke-miterlimit="10.0" stroke-opacity="1.0" stroke-width="3.035786553761644"><path d="M 1248.0000,124.6188 l -8.0000,-13.8564 l -8.0000,13.8564 Z"/></g><g stroke-linejoin="miter" fill-opacity="0.0" fill="rgb(0,0,0)" stroke="rgb(0,0,0)" stroke-linecap="butt" stroke-miterlimit="10.0" stroke-opacity="1.0" stroke-width="3.035786553761644"><path d="M 1240.0000,200.0000 l 0.0000,-80.0000 "/></g><g stroke-linejoin="miter" fill-opacity="1.0" fill="rgb(178,183,62)" stroke="rgb(0,0,0)" stroke-linecap="butt" stroke-miterlimit="10.0" stroke-opacity="1.0" stroke-width="0.0"><path d="M 880.0000,80.0000 l -0.0000,80.0000 l 80.0000,0.0000 l 0.0000,-80.0000 Z"/></g><g stroke-linejoin="miter" fill-opacity="1.0" fill="rgb(255,221,0)" stroke="rgb(0,0,0)" stroke-linecap="butt" stroke-miterlimit="10.0" stroke-opacity="1.0" stroke-width="0.0"><path d="M 800.0000,160.0000 l -0.0000,80.0000 l 80.0000,0.0000 l 0.0000,-80.0000 Z"/></g><g stroke-linejoin="miter" fill-opacity="1.0" fill="rgb(181,222,204)" stroke="rgb(0,0,0)" stroke-linecap="butt" stroke-miterlimit="10.0" stroke-opacity="1.0" stroke-width="0.0"><path d="M 880.0000,160.0000 l -0.0000,80.0000 l 80.0000,0.0000 l 0.0000,-80.0000 Z"/></g><g stroke-linejoin="miter" fill-opacity="1.0" fill="rgb(0,0,0)" stroke="rgb(0,0,0)" stroke-linecap="butt" stroke-miterlimit="10.0" stroke-opacity="1.0" stroke-width="0.0"><path d="M 912.0000,200.0000 c -0.0000,4.4183 3.5817,8.0000 8.0000 8.0000c 4.4183,0.0000 8.0000,-3.5817 8.0000 -8.0000c 0.0000,-4.4183 -3.5817,-8.0000 -8.0000 -8.0000c -4.4183,-0.0000 -8.0000,3.5817 -8.0000 8.0000Z"/></g><g stroke-linejoin="miter" fill-opacity="1.0" fill="rgb(238,180,128)" stroke="rgb(0,0,0)" stroke-linecap="butt" stroke-miterlimit="10.0" stroke-opacity="1.0" stroke-width="0.0"><path d="M 880.0000,240.0000 l -0.0000,80.0000 l 80.0000,0.0000 l 0.0000,-80.0000 Z"/></g><g stroke-linejoin="miter" fill-opacity="1.0" fill="rgb(0,0,0)" stroke="rgb(0,0,0)" stroke-linecap="butt" stroke-miterlimit="10.0" stroke-opacity="1.0" stroke-width="3.035786553761644"><path d="M 844.6188,192.0000 l -13.8564,8.0000 l 13.8564,8.0000 Z"/></g><g stroke-linejoin="miter" fill-opacity="0.0" fill="rgb(0,0,0)" stroke="rgb(0,0,0)" stroke-linecap="butt" stroke-miterlimit="10.0" stroke-opacity="1.0" stroke-width="3.035786553761644"><path d="M 920.0000,200.0000 l -80.0000,-0.0000 "/></g><g stroke-linejoin="miter" fill-opacity="1.0" fill="rgb(178,183,62)" stroke="rgb(0,0,0)" stroke-linecap="butt" stroke-miterlimit="10.0" stroke-opacity="1.0" stroke-width="0.0"><path d="M 400.0000,240.0000 l 80.0000,0.0000 l 0.0000,-80.0000 l -80.0000,-0.0000 Z"/></g><g stroke-linejoin="miter" fill-opacity="1.0" fill="rgb(255,221,0)" stroke="rgb(0,0,0)" stroke-linecap="butt" stroke-miterlimit="10.0" stroke-opacity="1.0" stroke-width="0.0"><path d="M 480.0000,320.0000 l 80.0000,0.0000 l 0.0000,-80.0000 l -80.0000,-0.0000 Z"/></g><g stroke-linejoin="miter" fill-opacity="1.0" fill="rgb(181,222,204)" stroke="rgb(0,0,0)" stroke-linecap="butt" stroke-miterlimit="10.0" stroke-opacity="1.0" stroke-width="0.0"><path d="M 480.0000,240.0000 l 80.0000,0.0000 l 0.0000,-80.0000 l -80.0000,-0.0000 Z"/></g><g stroke-linejoin="miter" fill-opacity="1.0" fill="rgb(0,0,0)" stroke="rgb(0,0,0)" stroke-linecap="butt" stroke-miterlimit="10.0" stroke-opacity="1.0" stroke-width="0.0"><path d="M 520.0000,208.0000 c 4.4183,0.0000 8.0000,-3.5817 8.0000 -8.0000c 0.0000,-4.4183 -3.5817,-8.0000 -8.0000 -8.0000c -4.4183,-0.0000 -8.0000,3.5817 -8.0000 8.0000c -0.0000,4.4183 3.5817,8.0000 8.0000 8.0000Z"/></g><g stroke-linejoin="miter" fill-opacity="1.0" fill="rgb(238,180,128)" stroke="rgb(0,0,0)" stroke-linecap="butt" stroke-miterlimit="10.0" stroke-opacity="1.0" stroke-width="0.0"><path d="M 560.0000,240.0000 l 80.0000,0.0000 l 0.0000,-80.0000 l -80.0000,-0.0000 Z"/></g><g stroke-linejoin="miter" fill-opacity="1.0" fill="rgb(0,0,0)" stroke="rgb(0,0,0)" stroke-linecap="butt" stroke-miterlimit="10.0" stroke-opacity="1.0" stroke-width="3.035786553761644"><path d="M 512.0000,275.3812 l 8.0000,13.8564 l 8.0000,-13.8564 Z"/></g><g stroke-linejoin="miter" fill-opacity="0.0" fill="rgb(0,0,0)" stroke="rgb(0,0,0)" stroke-linecap="butt" stroke-miterlimit="10.0" stroke-opacity="1.0" stroke-width="3.035786553761644"><path d="M 520.0000,200.0000 l -0.0000,80.0000 "/></g><g stroke-linejoin="miter" fill-opacity="1.0" fill="rgb(178,183,62)" stroke="rgb(0,0,0)" stroke-linecap="butt" stroke-miterlimit="10.0" stroke-opacity="1.0" stroke-width="0.0"><path d="M 160.0000,320.0000 l -0.0000,-80.0000 h -80.0000 l -0.0000,80.0000 Z"/></g><g stroke-linejoin="miter" fill-opacity="1.0" fill="rgb(255,221,0)" stroke="rgb(0,0,0)" stroke-linecap="butt" stroke-miterlimit="10.0" stroke-opacity="1.0" stroke-width="0.0"><path d="M 240.0000,240.0000 l -0.0000,-80.0000 h -80.0000 l -0.0000,80.0000 Z"/></g><g stroke-linejoin="miter" fill-opacity="1.0" fill="rgb(181,222,204)" stroke="rgb(0,0,0)" stroke-linecap="butt" stroke-miterlimit="10.0" stroke-opacity="1.0" stroke-width="0.0"><path d="M 160.0000,240.0000 l -0.0000,-80.0000 h -80.0000 l -0.0000,80.0000 Z"/></g><g stroke-linejoin="miter" fill-opacity="1.0" fill="rgb(0,0,0)" stroke="rgb(0,0,0)" stroke-linecap="butt" stroke-miterlimit="10.0" stroke-opacity="1.0" stroke-width="0.0"><path d="M 128.0000,200.0000 c 0.0000,-4.4183 -3.5817,-8.0000 -8.0000 -8.0000c -4.4183,-0.0000 -8.0000,3.5817 -8.0000 8.0000c -0.0000,4.4183 3.5817,8.0000 8.0000 8.0000c 4.4183,0.0000 8.0000,-3.5817 8.0000 -8.0000Z"/></g><g stroke-linejoin="miter" fill-opacity="1.0" fill="rgb(238,180,128)" stroke="rgb(0,0,0)" stroke-linecap="butt" stroke-miterlimit="10.0" stroke-opacity="1.0" stroke-width="0.0"><path d="M 160.0000,160.0000 l -0.0000,-80.0000 h -80.0000 l -0.0000,80.0000 Z"/></g><g stroke-linejoin="miter" fill-opacity="1.0" fill="rgb(0,0,0)" stroke="rgb(0,0,0)" stroke-linecap="butt" stroke-miterlimit="10.0" stroke-opacity="1.0" stroke-width="3.035786553761644"><path d="M 195.3812,208.0000 l 13.8564,-8.0000 l -13.8564,-8.0000 Z"/></g><g stroke-linejoin="miter" fill-opacity="0.0" fill="rgb(0,0,0)" stroke="rgb(0,0,0)" stroke-linecap="butt" stroke-miterlimit="10.0" stroke-opacity="1.0" stroke-width="3.035786553761644"><path d="M 120.0000,200.0000 l 80.0000,0.0000 "/></g></svg>