<?xml version="1.0" encoding="UTF-8"?>
<!DOCTYPE svg PUBLIC "-//W3C//DTD SVG 1.1//EN"
    "http://www.w3.org/Graphics/SVG/1.1/DTD/svg11.dtd"><svg xmlns="http://www.w3.org/2000/svg" viewBox="0.0 0.0 640.0 400.0" height="400.0000" font-size="1" stroke-opacity="1" width="640.0000" xmlns:xlink="http://www.w3.org/1999/xlink" stroke="rgb(0,0,0)" version="1.1"><defs></defs><g stroke-linecap="butt" fill="rgb(255,228,225)" stroke-miterlimit="10.0" stroke-width="0.0" fill-opacity="1.0" stroke-opacity="1.0" stroke-linejoin="miter" stroke="rgb(0,0,0)"><path d="M 560.0000,360.0000 l -0.0000,-40.0000 h -40.0000 l -0.0000,40.0000 Z"/></g><g stroke-linecap="butt" fill="rgb(0,0,0)" stroke-miterlimit="10.0" stroke-width="0.0" fill-opacity="1.0" stroke-opacity="1.0" stroke-linejoin="miter" stroke="rgb(0,0,0)"><path d="M 544.0000,340.0000 c 0.0000,-2.2091 -1.7909,-4.0000 -4.0000 -4.0000c -2.2091,-0.0000 -4.0000,1.7909 -4.0000 4.0000c -0.0000,2.2091 1.7909,4.0000 4.0000 4.0000c 2.2091,0.0000 4.0000,-1.7909 4.0000 -4.0000Z"/></g><g stroke-linecap="butt" fill="rgb(176,196,222)" stroke-miterlimit="10.0" stroke-width="0.0" fill-opacity="1.0" stroke-opacity="1.0" stroke-linejoin="miter" stroke="rgb(0,0,0)"><path d="M 600.0000,320.0000 l -0.0000,-40.0000 h -40.0000 l -0.0000,40.0000 Z"/></g><g stroke-linecap="butt" fill="rgb(255,228,225)" stroke-miterlimit="10.0" stroke-width="0.0" fill-opacity="1.0" stroke-opacity="1.0" stroke-linejoin="miter" stroke="rgb(0,0,0)"><path d="M 560.0000,320.0000 l -0.0000,-40.0000 h -40.0000 l -0.0000,40.0000 Z"/></g><g stroke-linecap="butt" fill="rgb(176,196,222)" stroke-miterlimit="10.0" stroke-width="0.0" fill-opacity="1.0" stroke-opacity="1.0" stroke-linejoin="miter" stroke="rgb(0,0,0)"><path d="M 560.0000,280.0000 l -0.0000,-40.0000 h -40.0000 l -0.0000,40.0000 Z"/></g><g stroke-linecap="butt" fill="rgb(0,0,0)" stroke-miterlimit="10.0" stroke-width="2.0238577025077626" fill-opacity="0.0" stroke-opacity="1.0" stroke-linejoin="miter" stroke="rgb(0,0,0)"><path d="M 540.0000,340.0000 l 0.0000,20.0000 "/></g><g stroke-linecap="butt" fill="rgb(0,0,0)" stroke-miterlimit="10.0" stroke-width="0.0" fill-opacity="1.0" stroke-opacity="1.0" stroke-linejoin="miter" stroke="rgb(0,0,0)"></g><g stroke-linecap="butt" fill="rgb(0,0,0)" stroke-miterlimit="10.0" stroke-width="0.0" fill-opacity="1.0" stroke-opacity="1.0" stroke-linejoin="miter" stroke="rgb(0,0,0)"></g><g stroke-linecap="butt" fill="rgb(0,0,0)" stroke-miterlimit="10.0" stroke-width="0.0" fill-opacity="1.0" stroke-opacity="1.0" stroke-linejoin="miter" stroke="rgb(0,0,0)"><path d="M 540.0000,380.0000 l 7.6287,-23.4786 l -7.6287,4.0106 l -7.6287,-4.0106 Z"/></g><g stroke-linecap="butt" fill="rgb(0,0,0)" stroke-miterlimit="10.0" stroke-width="0.0" fill-opacity="1.0" stroke-opacity="1.0" stroke-linejoin="miter" stroke="rgb(0,0,0)"><path d="M 540.0000,360.5320 l -0.0000,-0.5320 l 1.0119,-0.0000 l -1.0119,0.5320 l -0.0000,-0.5320 l -1.0119,0.0000 Z"/></g><g stroke-linecap="butt" fill="rgb(176,196,222)" stroke-miterlimit="10.0" stroke-width="0.0" fill-opacity="1.0" stroke-opacity="1.0" stroke-linejoin="miter" stroke="rgb(0,0,0)"><path d="M 400.0000,360.0000 l -0.0000,-40.0000 h -40.0000 l -0.0000,40.0000 Z"/></g><g stroke-linecap="butt" fill="rgb(176,196,222)" stroke-miterlimit="10.0" stroke-width="0.0" fill-opacity="1.0" stroke-opacity="1.0" stroke-linejoin="miter" stroke="rgb(0,0,0)"><path d="M 440.0000,320.0000 l -0.0000,-40.0000 h -40.0000 l -0.0000,40.0000 Z"/></g><g stroke-linecap="butt" fill="rgb(255,228,225)" stroke-miterlimit="10.0" stroke-width="0.0" fill-opacity="1.0" stroke-opacity="1.0" stroke-linejoin="miter" stroke="rgb(0,0,0)"><path d="M 400.0000,320.0000 l -0.0000,-40.0000 h -40.0000 l -0.0000,40.0000 Z"/></g><g stroke-linecap="butt" fill="rgb(255,228,225)" stroke-miterlimit="10.0" stroke-width="0.0" fill-opacity="1.0" stroke-opacity="1.0" stroke-linejoin="miter" stroke="rgb(0,0,0)"><path d="M 400.0000,280.0000 l -0.0000,-40.0000 h -40.0000 l -0.0000,40.0000 Z"/></g><g stroke-linecap="butt" fill="rgb(0,0,0)" stroke-miterlimit="10.0" stroke-width="0.0" fill-opacity="1.0" stroke-opacity="1.0" stroke-linejoin="miter" stroke="rgb(0,0,0)"><path d="M 384.0000,260.0000 c 0.0000,-2.2091 -1.7909,-4.0000 -4.0000 -4.0000c -2.2091,-0.0000 -4.0000,1.7909 -4.0000 4.0000c -0.0000,2.2091 1.7909,4.0000 4.0000 4.0000c 2.2091,0.0000 4.0000,-1.7909 4.0000 -4.0000Z"/></g><g stroke-linecap="butt" fill="rgb(0,0,0)" stroke-miterlimit="10.0" stroke-width="2.0238577025077626" fill-opacity="0.0" stroke-opacity="1.0" stroke-linejoin="miter" stroke="rgb(0,0,0)"><path d="M 380.0000,260.0000 l 0.0000,-20.0000 "/></g><g stroke-linecap="butt" fill="rgb(0,0,0)" stroke-miterlimit="10.0" stroke-width="0.0" fill-opacity="1.0" stroke-opacity="1.0" stroke-linejoin="miter" stroke="rgb(0,0,0)"></g><g stroke-linecap="butt" fill="rgb(0,0,0)" stroke-miterlimit="10.0" stroke-width="0.0" fill-opacity="1.0" stroke-opacity="1.0" stroke-linejoin="miter" stroke="rgb(0,0,0)"></g><g stroke-linecap="butt" fill="rgb(0,0,0)" stroke-miterlimit="10.0" stroke-width="0.0" fill-opacity="1.0" stroke-opacity="1.0" stroke-linejoin="miter" stroke="rgb(0,0,0)"><path d="M 380.0000,220.0000 l -7.6287,23.4786 l 7.6287,-4.0106 l 7.6287,4.0106 Z"/></g><g stroke-linecap="butt" fill="rgb(0,0,0)" stroke-miterlimit="10.0" stroke-width="0.0" fill-opacity="1.0" stroke-opacity="1.0" stroke-linejoin="miter" stroke="rgb(0,0,0)"><path d="M 380.0000,239.4680 l -0.0000,0.5320 l -1.0119,-0.0000 l 1.0119,-0.5320 l -0.0000,0.5320 l 1.0119,0.0000 Z"/></g><g stroke-linecap="butt" fill="rgb(176,196,222)" stroke-miterlimit="10.0" stroke-width="0.0" fill-opacity="1.0" stroke-opacity="1.0" stroke-linejoin="miter" stroke="rgb(0,0,0)"><path d="M 240.0000,360.0000 l -0.0000,-40.0000 h -40.0000 l -0.0000,40.0000 Z"/></g><g stroke-linecap="butt" fill="rgb(255,228,225)" stroke-miterlimit="10.0" stroke-width="0.0" fill-opacity="1.0" stroke-opacity="1.0" stroke-linejoin="miter" stroke="rgb(0,0,0)"><path d="M 280.0000,320.0000 l -0.0000,-40.0000 h -40.0000 l -0.0000,40.0000 Z"/></g><g stroke-linecap="butt" fill="rgb(0,0,0)" stroke-miterlimit="10.0" stroke-width="0.0" fill-opacity="1.0" stroke-opacity="1.0" stroke-linejoin="miter" stroke="rgb(0,0,0)"><path d="M 264.0000,300.0000 c 0.0000,-2.2091 -1.7909,-4.0000 -4.0000 -4.0000c -2.2091,-0.0000 -4.0000,1.7909 -4.0000 4.0000c -0.0000,2.2091 1.7909,4.0000 4.0000 4.0000c 2.2091,0.0000 4.0000,-1.7909 4.0000 -4.0000Z"/></g><g stroke-linecap="butt" fill="rgb(255,228,225)" stroke-miterlimit="10.0" stroke-width="0.0" fill-opacity="1.0" stroke-opacity="1.0" stroke-linejoin="miter" stroke="rgb(0,0,0)"><path d="M 240.0000,320.0000 l -0.0000,-40.0000 h -40.0000 l -0.0000,40.0000 Z"/></g><g stroke-linecap="butt" fill="rgb(176,196,222)" stroke-miterlimit="10.0" stroke-width="0.0" fill-opacity="1.0" stroke-opacity="1.0" stroke-linejoin="miter" stroke="rgb(0,0,0)"><path d="M 240.0000,280.0000 l -0.0000,-40.0000 h -40.0000 l -0.0000,40.0000 Z"/></g><g stroke-linecap="butt" fill="rgb(0,0,0)" stroke-miterlimit="10.0" stroke-width="2.0238577025077626" fill-opacity="0.0" stroke-opacity="1.0" stroke-linejoin="miter" stroke="rgb(0,0,0)"><path d="M 260.0000,300.0000 h 20.0000 "/></g><g stroke-linecap="butt" fill="rgb(0,0,0)" stroke-miterlimit="10.0" stroke-width="0.0" fill-opacity="1.0" stroke-opacity="1.0" stroke-linejoin="miter" stroke="rgb(0,0,0)"></g><g stroke-linecap="butt" fill="rgb(0,0,0)" stroke-miterlimit="10.0" stroke-width="0.0" fill-opacity="1.0" stroke-opacity="1.0" stroke-linejoin="miter" stroke="rgb(0,0,0)"></g><g stroke-linecap="butt" fill="rgb(0,0,0)" stroke-miterlimit="10.0" stroke-width="0.0" fill-opacity="1.0" stroke-opacity="1.0" stroke-linejoin="miter" stroke="rgb(0,0,0)"><path d="M 300.0000,300.0000 l -23.4786,-7.6287 l 4.0106,7.6287 l -4.0106,7.6287 Z"/></g><g stroke-linecap="butt" fill="rgb(0,0,0)" stroke-miterlimit="10.0" stroke-width="0.0" fill-opacity="1.0" stroke-opacity="1.0" stroke-linejoin="miter" stroke="rgb(0,0,0)"><path d="M 280.5320,300.0000 h -0.5320 v -1.0119 l 0.5320,1.0119 h -0.5320 v 1.0119 Z"/></g><g stroke-linecap="butt" fill="rgb(173,255,47)" stroke-miterlimit="10.0" stroke-width="0.0" fill-opacity="1.0" stroke-opacity="1.0" stroke-linejoin="miter" stroke="rgb(0,0,0)"><path d="M 80.0000,360.0000 l -0.0000,-40.0000 h -40.0000 l -0.0000,40.0000 Z"/></g><g stroke-linecap="butt" fill="rgb(255,228,225)" stroke-miterlimit="10.0" stroke-width="0.0" fill-opacity="1.0" stroke-opacity="1.0" stroke-linejoin="miter" stroke="rgb(0,0,0)"><path d="M 120.0000,320.0000 l -0.0000,-40.0000 h -40.0000 l -0.0000,40.0000 Z"/></g><g stroke-linecap="butt" fill="rgb(0,0,0)" stroke-miterlimit="10.0" stroke-width="0.0" fill-opacity="1.0" stroke-opacity="1.0" stroke-linejoin="miter" stroke="rgb(0,0,0)"><path d="M 104.0000,300.0000 c 0.0000,-2.2091 -1.7909,-4.0000 -4.0000 -4.0000c -2.2091,-0.0000 -4.0000,1.7909 -4.0000 4.0000c -0.0000,2.2091 1.7909,4.0000 4.0000 4.0000c 2.2091,0.0000 4.0000,-1.7909 4.0000 -4.0000Z"/></g><g stroke-linecap="butt" fill="rgb(255,228,225)" stroke-miterlimit="10.0" stroke-width="0.0" fill-opacity="1.0" stroke-opacity="1.0" stroke-linejoin="miter" stroke="rgb(0,0,0)"><path d="M 80.0000,320.0000 l -0.0000,-40.0000 h -40.0000 l -0.0000,40.0000 Z"/></g><g stroke-linecap="butt" fill="rgb(176,196,222)" stroke-miterlimit="10.0" stroke-width="0.0" fill-opacity="1.0" stroke-opacity="1.0" stroke-linejoin="miter" stroke="rgb(0,0,0)"><path d="M 80.0000,280.0000 l -0.0000,-40.0000 h -40.0000 l -0.0000,40.0000 Z"/></g><g stroke-linecap="butt" fill="rgb(0,0,0)" stroke-miterlimit="10.0" stroke-width="2.0238577025077626" fill-opacity="0.0" stroke-opacity="1.0" stroke-linejoin="miter" stroke="rgb(0,0,0)"><path d="M 100.0000,300.0000 h 20.0000 "/></g><g stroke-linecap="butt" fill="rgb(0,0,0)" stroke-miterlimit="10.0" stroke-width="0.0" fill-opacity="1.0" stroke-opacity="1.0" stroke-linejoin="miter" stroke="rgb(0,0,0)"></g><g stroke-linecap="butt" fill="rgb(0,0,0)" stroke-miterlimit="10.0" stroke-width="0.0" fill-opacity="1.0" stroke-opacity="1.0" stroke-linejoin="miter" stroke="rgb(0,0,0)"></g><g stroke-linecap="butt" fill="rgb(0,0,0)" stroke-miterlimit="10.0" stroke-width="0.0" fill-opacity="1.0" stroke-opacity="1.0" stroke-linejoin="miter" stroke="rgb(0,0,0)"><path d="M 140.0000,300.0000 l -23.4786,-7.6287 l 4.0106,7.6287 l -4.0106,7.6287 Z"/></g><g stroke-linecap="butt" fill="rgb(0,0,0)" stroke-miterlimit="10.0" stroke-width="0.0" fill-opacity="1.0" stroke-opacity="1.0" stroke-linejoin="miter" stroke="rgb(0,0,0)"><path d="M 120.5320,300.0000 h -0.5320 v -1.0119 l 0.5320,1.0119 h -0.5320 v 1.0119 Z"/></g><g stroke-linecap="butt" fill="rgb(255,228,225)" stroke-miterlimit="10.0" stroke-width="0.0" fill-opacity="1.0" stroke-opacity="1.0" stroke-linejoin="miter" stroke="rgb(0,0,0)"><path d="M 400.0000,160.0000 l -0.0000,-40.0000 h -40.0000 l -0.0000,40.0000 Z"/></g><g stroke-linecap="butt" fill="rgb(255,228,225)" stroke-miterlimit="10.0" stroke-width="0.0" fill-opacity="1.0" stroke-opacity="1.0" stroke-linejoin="miter" stroke="rgb(0,0,0)"><path d="M 440.0000,120.0000 l -0.0000,-40.0000 h -40.0000 l -0.0000,40.0000 Z"/></g><g stroke-linecap="butt" fill="rgb(0,0,0)" stroke-miterlimit="10.0" stroke-width="0.0" fill-opacity="1.0" stroke-opacity="1.0" stroke-linejoin="miter" stroke="rgb(0,0,0)"><path d="M 424.0000,100.0000 c 0.0000,-2.2091 -1.7909,-4.0000 -4.0000 -4.0000c -2.2091,-0.0000 -4.0000,1.7909 -4.0000 4.0000c -0.0000,2.2091 1.7909,4.0000 4.0000 4.0000c 2.2091,0.0000 4.0000,-1.7909 4.0000 -4.0000Z"/></g><g stroke-linecap="butt" fill="rgb(255,228,225)" stroke-miterlimit="10.0" stroke-width="0.0" fill-opacity="1.0" stroke-opacity="1.0" stroke-linejoin="miter" stroke="rgb(0,0,0)"><path d="M 400.0000,120.0000 l -0.0000,-40.0000 h -40.0000 l -0.0000,40.0000 Z"/></g><g stroke-linecap="butt" fill="rgb(176,196,222)" stroke-miterlimit="10.0" stroke-width="0.0" fill-opacity="1.0" stroke-opacity="1.0" stroke-linejoin="miter" stroke="rgb(0,0,0)"><path d="M 400.0000,80.0000 l -0.0000,-40.0000 h -40.0000 l -0.0000,40.0000 Z"/></g><g stroke-linecap="butt" fill="rgb(0,0,0)" stroke-miterlimit="10.0" stroke-width="2.0238577025077626" fill-opacity="0.0" stroke-opacity="1.0" stroke-linejoin="miter" stroke="rgb(0,0,0)"><path d="M 420.0000,100.0000 h 20.0000 "/></g><g stroke-linecap="butt" fill="rgb(0,0,0)" stroke-miterlimit="10.0" stroke-width="0.0" fill-opacity="1.0" stroke-opacity="1.0" stroke-linejoin="miter" stroke="rgb(0,0,0)"></g><g stroke-linecap="butt" fill="rgb(0,0,0)" stroke-miterlimit="10.0" stroke-width="0.0" fill-opacity="1.0" stroke-opacity="1.0" stroke-linejoin="miter" stroke="rgb(0,0,0)"></g><g stroke-linecap="butt" fill="rgb(0,0,0)" stroke-miterlimit="10.0" stroke-width="0.0" fill-opacity="1.0" stroke-opacity="1.0" stroke-linejoin="miter" stroke="rgb(0,0,0)"><path d="M 460.0000,100.0000 l -23.4786,-7.6287 l 4.0106,7.6287 l -4.0106,7.6287 Z"/></g><g stroke-linecap="butt" fill="rgb(0,0,0)" stroke-miterlimit="10.0" stroke-width="0.0" fill-opacity="1.0" stroke-opacity="1.0" stroke-linejoin="miter" stroke="rgb(0,0,0)"><path d="M 440.5320,100.0000 h -0.5320 v -1.0119 l 0.5320,1.0119 h -0.5320 v 1.0119 Z"/></g><g stroke-linecap="butt" fill="rgb(176,196,222)" stroke-miterlimit="10.0" stroke-width="0.0" fill-opacity="1.0" stroke-opacity="1.0" stroke-linejoin="miter" stroke="rgb(0,0,0)"><path d="M 240.0000,160.0000 l -0.0000,-40.0000 h -40.0000 l -0.0000,40.0000 Z"/></g><g stroke-linecap="butt" fill="rgb(255,228,225)" stroke-miterlimit="10.0" stroke-width="0.0" fill-opacity="1.0" stroke-opacity="1.0" stroke-linejoin="miter" stroke="rgb(0,0,0)"><path d="M 280.0000,120.0000 l -0.0000,-40.0000 h -40.0000 l -0.0000,40.0000 Z"/></g><g stroke-linecap="butt" fill="rgb(0,0,0)" stroke-miterlimit="10.0" stroke-width="0.0" fill-opacity="1.0" stroke-opacity="1.0" stroke-linejoin="miter" stroke="rgb(0,0,0)"><path d="M 264.0000,100.0000 c 0.0000,-2.2091 -1.7909,-4.0000 -4.0000 -4.0000c -2.2091,-0.0000 -4.0000,1.7909 -4.0000 4.0000c -0.0000,2.2091 1.7909,4.0000 4.0000 4.0000c 2.2091,0.0000 4.0000,-1.7909 4.0000 -4.0000Z"/></g><g stroke-linecap="butt" fill="rgb(255,228,225)" stroke-miterlimit="10.0" stroke-width="0.0" fill-opacity="1.0" stroke-opacity="1.0" stroke-linejoin="miter" stroke="rgb(0,0,0)"><path d="M 240.0000,120.0000 l -0.0000,-40.0000 h -40.0000 l -0.0000,40.0000 Z"/></g><g stroke-linecap="butt" fill="rgb(255,228,225)" stroke-miterlimit="10.0" stroke-width="0.0" fill-opacity="1.0" stroke-opacity="1.0" stroke-linejoin="miter" stroke="rgb(0,0,0)"><path d="M 240.0000,80.0000 l -0.0000,-40.0000 h -40.0000 l -0.0000,40.0000 Z"/></g><g stroke-linecap="butt" fill="rgb(0,0,0)" stroke-miterlimit="10.0" stroke-width="2.0238577025077626" fill-opacity="0.0" stroke-opacity="1.0" stroke-linejoin="miter" stroke="rgb(0,0,0)"><path d="M 260.0000,100.0000 h 20.0000 "/></g><g stroke-linecap="butt" fill="rgb(0,0,0)" stroke-miterlimit="10.0" stroke-width="0.0" fill-opacity="1.0" stroke-opacity="1.0" stroke-linejoin="miter" stroke="rgb(0,0,0)"></g><g stroke-linecap="butt" fill="rgb(0,0,0)" stroke-miterlimit="10.0" stroke-width="0.0" fill-opacity="1.0" stroke-opacity="1.0" stroke-linejoin="miter" stroke="rgb(0,0,0)"></g><g stroke-linecap="butt" fill="rgb(0,0,0)" stroke-miterlimit="10.0" stroke-width="0.0" fill-opacity="1.0" stroke-opacity="1.0" stroke-linejoin="miter" stroke="rgb(0,0,0)"><path d="M 300.0000,100.0000 l -23.4786,-7.6287 l 4.0106,7.6287 l -4.0106,7.6287 Z"/></g><g stroke-linecap="butt" fill="rgb(0,0,0)" stroke-miterlimit="10.0" stroke-width="0.0" fill-opacity="1.0" stroke-opacity="1.0" stroke-linejoin="miter" stroke="rgb(0,0,0)"><path d="M 280.5320,100.0000 h -0.5320 v -1.0119 l 0.5320,1.0119 h -0.5320 v 1.0119 Z"/></g><g stroke-linecap="butt" fill="rgb(255,228,225)" stroke-miterlimit="10.0" stroke-width="0.0" fill-opacity="1.0" stroke-opacity="1.0" stroke-linejoin="miter" stroke="rgb(0,0,0)"><path d="M 80.0000,160.0000 l -0.0000,-40.0000 h -40.0000 l -0.0000,40.0000 Z"/></g><g stroke-linecap="butt" fill="rgb(255,228,225)" stroke-miterlimit="10.0" stroke-width="0.0" fill-opacity="1.0" stroke-opacity="1.0" stroke-linejoin="miter" stroke="rgb(0,0,0)"><path d="M 120.0000,120.0000 l -0.0000,-40.0000 h -40.0000 l -0.0000,40.0000 Z"/></g><g stroke-linecap="butt" fill="rgb(0,0,0)" stroke-miterlimit="10.0" stroke-width="0.0" fill-opacity="1.0" stroke-opacity="1.0" stroke-linejoin="miter" stroke="rgb(0,0,0)"><path d="M 104.0000,100.0000 c 0.0000,-2.2091 -1.7909,-4.0000 -4.0000 -4.0000c -2.2091,-0.0000 -4.0000,1.7909 -4.0000 4.0000c -0.0000,2.2091 1.7909,4.0000 4.0000 4.0000c 2.2091,0.0000 4.0000,-1.7909 4.0000 -4.0000Z"/></g><g stroke-linecap="butt" fill="rgb(255,228,225)" stroke-miterlimit="10.0" stroke-width="0.0" fill-opacity="1.0" stroke-opacity="1.0" stroke-linejoin="miter" stroke="rgb(0,0,0)"><path d="M 80.0000,120.0000 l -0.0000,-40.0000 h -40.0000 l -0.0000,40.0000 Z"/></g><g stroke-linecap="butt" fill="rgb(255,228,225)" stroke-miterlimit="10.0" stroke-width="0.0" fill-opacity="1.0" stroke-opacity="1.0" stroke-linejoin="miter" stroke="rgb(0,0,0)"><path d="M 80.0000,80.0000 l -0.0000,-40.0000 h -40.0000 l -0.0000,40.0000 Z"/></g><g stroke-linecap="butt" fill="rgb(0,0,0)" stroke-miterlimit="10.0" stroke-width="2.0238577025077626" fill-opacity="0.0" stroke-opacity="1.0" stroke-linejoin="miter" stroke="rgb(0,0,0)"><path d="M 100.0000,100.0000 h 20.0000 "/></g><g stroke-linecap="butt" fill="rgb(0,0,0)" stroke-miterlimit="10.0" stroke-width="0.0" fill-opacity="1.0" stroke-opacity="1.0" stroke-linejoin="miter" stroke="rgb(0,0,0)"></g><g stroke-linecap="butt" fill="rgb(0,0,0)" stroke-miterlimit="10.0" stroke-width="0.0" fill-opacity="1.0" stroke-opacity="1.0" stroke-linejoin="miter" stroke="rgb(0,0,0)"></g><g stroke-linecap="butt" fill="rgb(0,0,0)" stroke-miterlimit="10.0" stroke-width="0.0" fill-opacity="1.0" stroke-opacity="1.0" stroke-linejoin="miter" stroke="rgb(0,0,0)"><path d="M 140.0000,100.0000 l -23.4786,-7.6287 l 4.0106,7.6287 l -4.0106,7.6287 Z"/></g><g stroke-linecap="butt" fill="rgb(0,0,0)" stroke-miterlimit="10.0" stroke-width="0.0" fill-opacity="1.0" stroke-opacity="1.0" stroke-linejoin="miter" stroke="rgb(0,0,0)"><path d="M 120.5320,100.0000 h -0.5320 v -1.0119 l 0.5320,1.0119 h -0.5320 v 1.0119 Z"/></g></svg>