<?xml version="1.0" encoding="UTF-8"?>
<!DOCTYPE svg PUBLIC "-//W3C//DTD SVG 1.1//EN"
    "http://www.w3.org/Graphics/SVG/1.1/DTD/svg11.dtd"><svg xmlns="http://www.w3.org/2000/svg" viewBox="0.0 0.0 640.0 400.0" height="400.0000" font-size="1" stroke-opacity="1" width="640.0000" xmlns:xlink="http://www.w3.org/1999/xlink" stroke="rgb(0,0,0)" version="1.1"><defs></defs><g stroke-linecap="butt" fill="rgb(176,196,222)" stroke-miterlimit="10.0" stroke-width="0.0" fill-opacity="1.0" stroke-opacity="1.0" stroke-linejoin="miter" stroke="rgb(0,0,0)"><path d="M 480.0000,320.0000 l -0.0000,-80.0000 h -80.0000 l -0.0000,80.0000 Z"/></g><g stroke-linecap="butt" fill="rgb(255,228,225)" stroke-miterlimit="10.0" stroke-width="0.0" fill-opacity="1.0" stroke-opacity="1.0" stroke-linejoin="miter" stroke="rgb(0,0,0)"><path d="M 560.0000,240.0000 l -0.0000,-80.0000 h -80.0000 l -0.0000,80.0000 Z"/></g><g stroke-linecap="butt" fill="rgb(0,0,0)" stroke-miterlimit="10.0" stroke-width="0.0" fill-opacity="1.0" stroke-opacity="1.0" stroke-linejoin="miter" stroke="rgb(0,0,0)"><path d="M 528.0000,200.0000 c 0.0000,-4.4183 -3.5817,-8.0000 -8.0000 -8.0000c -4.4183,-0.0000 -8.0000,3.5817 -8.0000 8.0000c -0.0000,4.4183 3.5817,8.0000 8.0000 8.0000c 4.4183,0.0000 8.0000,-3.5817 8.0000 -8.0000Z"/></g><g stroke-linecap="butt" fill="rgb(176,196,222)" stroke-miterlimit="10.0" stroke-width="0.0" fill-opacity="1.0" stroke-opacity="1.0" stroke-linejoin="miter" stroke="rgb(0,0,0)"><path d="M 480.0000,240.0000 l -0.0000,-80.0000 h -80.0000 l -0.0000,80.0000 Z"/></g><g stroke-linecap="butt" fill="rgb(176,196,222)" stroke-miterlimit="10.0" stroke-width="0.0" fill-opacity="1.0" stroke-opacity="1.0" stroke-linejoin="miter" stroke="rgb(0,0,0)"><path d="M 480.0000,160.0000 l -0.0000,-80.0000 h -80.0000 l -0.0000,80.0000 Z"/></g><g stroke-linecap="butt" fill="rgb(176,196,222)" stroke-miterlimit="10.0" stroke-width="0.0" fill-opacity="1.0" stroke-opacity="1.0" stroke-linejoin="miter" stroke="rgb(0,0,0)"><path d="M 160.0000,320.0000 l -0.0000,-80.0000 h -80.0000 l -0.0000,80.0000 Z"/></g><g stroke-linecap="butt" fill="rgb(176,196,222)" stroke-miterlimit="10.0" stroke-width="0.0" fill-opacity="1.0" stroke-opacity="1.0" stroke-linejoin="miter" stroke="rgb(0,0,0)"><path d="M 240.0000,240.0000 l -0.0000,-80.0000 h -80.0000 l -0.0000,80.0000 Z"/></g><g stroke-linecap="butt" fill="rgb(255,228,225)" stroke-miterlimit="10.0" stroke-width="0.0" fill-opacity="1.0" stroke-opacity="1.0" stroke-linejoin="miter" stroke="rgb(0,0,0)"><path d="M 160.0000,240.0000 l -0.0000,-80.0000 h -80.0000 l -0.0000,80.0000 Z"/></g><g stroke-linecap="butt" fill="rgb(0,0,0)" stroke-miterlimit="10.0" stroke-width="0.0" fill-opacity="1.0" stroke-opacity="1.0" stroke-linejoin="miter" stroke="rgb(0,0,0)"><path d="M 128.0000,200.0000 c 0.0000,-4.4183 -3.5817,-8.0000 -8.0000 -8.0000c -4.4183,-0.0000 -8.0000,3.5817 -8.0000 8.0000c -0.0000,4.4183 3.5817,8.0000 8.0000 8.0000c 4.4183,0.0000 8.0000,-3.5817 8.0000 -8.0000Z"/></g><g stroke-linecap="butt" fill="rgb(176,196,222)" stroke-miterlimit="10.0" stroke-width="0.0" fill-opacity="1.0" stroke-opacity="1.0" stroke-linejoin="miter" stroke="rgb(0,0,0)"><path d="M 160.0000,160.0000 l -0.0000,-80.0000 h -80.0000 l -0.0000,80.0000 Z"/></g></svg>