<?xml version="1.0" encoding="UTF-8"?>
<!DOCTYPE svg PUBLIC "-//W3C//DTD SVG 1.1//EN"
    "http://www.w3.org/Graphics/SVG/1.1/DTD/svg11.dtd">
<svg xmlns="http://www.w3.org/2000/svg" xmlns:xlink="http://www.w3.org/1999/xlink" version="1.1" width="100" height="100"><a href="examples/minimal.png"><rect x="20" y="0" width="20" height="20" fill="#eeb480" /><rect x="40" y="0" width="20" height="20" fill="#eeb480" /><rect x="60" y="0" width="20" height="20" fill="#eeb480" /><rect x="0" y="20" width="20" height="20" fill="#ffdd00" /><rect x="20" y="20" width="20" height="20" fill="#b2b73e" /><rect x="40" y="20" width="20" height="20" fill="#b5decc" /><rect x="60" y="20" width="20" height="20" fill="#ffdd00" /><rect x="80" y="20" width="20" height="20" fill="#ffdd00" /><rect x="0" y="40" width="20" height="20" fill="#b5decc" /><rect x="20" y="40" width="20" height="20" fill="#b5decc" /><rect x="40" y="40" width="20" height="20" fill="#eeb480" /><rect x="60" y="40" width="20" height="20" fill="#b2b73e" /><rect x="80" y="40" width="20" height="20" fill="#ffdd00" /><rect x="0" y="60" width="20" height="20" fill="#ffdd00" /><rect x="20" y="60" width="20" height="20" fill="#eeb480" /><rect x="40" y="60" width="20" height="20" fill="#b5decc" /><rect x="60" y="60" width="20" height="20" fill="#b2b73e" /><rect x="80" y="60" width="20" height="20" fill="#ffdd00" /><rect x="20" y="80" width="20" height="20" fill="#b2b73e" /><rect x="40" y="80" width="20" height="20" fill="#ffdd00" /><rect x="60" y="80" width="20" height="20" fill="#b2b73e" /><circle cx="10" cy="50" r="3" fill="#000" /><line x1="10" y1="50" x2="30" y2="50" stroke="#000" stroke-width="2" /><polygon points="27,47 33,50 27,53" stroke="#000" /></a></svg>