<?xml version="1.0" encoding="UTF-8"?>
<!DOCTYPE svg PUBLIC "-//W3C//DTD SVG 1.1//EN"
    "http://www.w3.org/Graphics/SVG/1.1/DTD/svg11.dtd">
<svg xmlns="http://www.w3.org/2000/svg" xmlns:xlink="http://www.w3.org/1999/xlink" version="1.1" width="84" height="124"><rect x="42" y="2" width="20" height="20" fill="#ffdd00" /><rect x="22" y="22" width="20" height="20" fill="#b5decc" /><rect x="42" y="22" width="20" height="20" fill="#ffdd00" /><rect x="62" y="22" width="20" height="20" fill="#ffdd00" /><rect x="2" y="42" width="20" height="20" fill="#eeb480" /><rect x="22" y="42" width="20" height="20" fill="#b5decc" /><rect x="42" y="42" width="20" height="20" fill="#b2b73e" /><rect x="62" y="42" width="20" height="20" fill="#eeb480" /><rect x="2" y="62" width="20" height="20" fill="#eeb480" /><rect x="22" y="62" width="20" height="20" fill="#eeb480" /><rect x="42" y="62" width="20" height="20" fill="#ffdd00" /><rect x="62" y="62" width="20" height="20" fill="#eeb480" /><rect x="2" y="82" width="20" height="20" fill="#eeb480" /><rect x="22" y="82" width="20" height="20" fill="#ffdd00" /><rect x="42" y="82" width="20" height="20" fill="#b2b73e" /><rect x="62" y="82" width="20" height="20" fill="#b5decc" /><rect x="22" y="102" width="20" height="20" fill="#b5decc" /><rect x="42" y="102" width="20" height="20" fill="#eeb480" /><circle cx="12" cy="72" r="3" fill="#000" /><line x1="12" y1="72" x2="32" y2="72" stroke="#000" stroke-width="2" /><polygon points="29,69 35,72 29,75" fill="#000" /><polyline points="2,42 22,42 22,62 42,62 42,82 22,82 22,102 2,102 2,42" stroke="#0008" fill="none" stroke-width="1" /></svg>