<?xml version="1.0" encoding="UTF-8"?>
<!DOCTYPE svg PUBLIC "-//W3C//DTD SVG 1.1//EN"
    "http://www.w3.org/Graphics/SVG/1.1/DTD/svg11.dtd">
<svg xmlns="http://www.w3.org/2000/svg" xmlns:xlink="http://www.w3.org/1999/xlink" version="1.1" width="104" height="104"><rect x="2" y="2" width="20" height="20" fill="#b2b73e" /><rect x="22" y="2" width="20" height="20" fill="#b5decc" /><rect x="42" y="2" width="20" height="20" fill="#b2b73e" /><rect x="62" y="2" width="20" height="20" fill="#b2b73e" /><rect x="82" y="2" width="20" height="20" fill="#b2b73e" /><rect x="2" y="22" width="20" height="20" fill="#b2b73e" /><rect x="22" y="22" width="20" height="20" fill="#b5decc" /><rect x="42" y="22" width="20" height="20" fill="#ffdd00" /><rect x="62" y="22" width="20" height="20" fill="#eeb480" /><rect x="82" y="22" width="20" height="20" fill="#eeb480" /><rect x="2" y="42" width="20" height="20" fill="#ffdd00" /><rect x="22" y="42" width="20" height="20" fill="#ffdd00" /><rect x="42" y="42" width="20" height="20" fill="#eeb480" /><rect x="62" y="42" width="20" height="20" fill="#b5decc" /><rect x="82" y="42" width="20" height="20" fill="#b5decc" /><rect x="2" y="62" width="20" height="20" fill="#b2b73e" /><rect x="22" y="62" width="20" height="20" fill="#eeb480" /><rect x="42" y="62" width="20" height="20" fill="#ffdd00" /><rect x="62" y="62" width="20" height="20" fill="#b2b73e" /><rect x="82" y="62" width="20" height="20" fill="#b5decc" /><rect x="2" y="82" width="20" height="20" fill="#b5decc" /><rect x="22" y="82" width="20" height="20" fill="#b5decc" /><rect x="42" y="82" width="20" height="20" fill="#b5decc" /><rect x="62" y="82" width="20" height="20" fill="#b5decc" /><rect x="82" y="82" width="20" height="20" fill="#b5decc" /><circle cx="12" cy="52" r="3" fill="#000" /><line x1="12" y1="52" x2="32" y2="52" stroke="#000" stroke-width="2" /><polygon points="29,49 35,52 29,55" fill="#000" /><polyline points="2,22 22,22 22,42 42,42 42,62 22,62 22,82 2,82 2,22" stroke="#0008" fill="none" stroke-width="1" /></svg>