<?xml version="1.0" encoding="UTF-8"?>
<!DOCTYPE svg PUBLIC "-//W3C//DTD SVG 1.1//EN"
    "http://www.w3.org/Graphics/SVG/1.1/DTD/svg11.dtd">
<svg xmlns="http://www.w3.org/2000/svg" xmlns:xlink="http://www.w3.org/1999/xlink" version="1.1" width="464" height="404"><rect x="2" y="2" width="20" height="20" fill="#b84f4f" /><rect x="22" y="2" width="20" height="20" fill="#b84f4f" /><rect x="42" y="2" width="20" height="20" fill="#b84f4f" /><rect x="62" y="2" width="20" height="20" fill="#b84f4f" /><rect x="82" y="2" width="20" height="20" fill="#b84f4f" /><rect x="102" y="2" width="20" height="20" fill="#b84f4f" /><rect x="122" y="2" width="20" height="20" fill="#ffdd00" /><rect x="142" y="2" width="20" height="20" fill="#b84f4f" /><rect x="162" y="2" width="20" height="20" fill="#b84f4f" /><rect x="262" y="2" width="20" height="20" fill="#b84f4f" /><rect x="282" y="2" width="20" height="20" fill="#b84f4f" /><rect x="342" y="2" width="20" height="20" fill="#b84f4f" /><rect x="362" y="2" width="20" height="20" fill="#b84f4f" /><rect x="402" y="2" width="20" height="20" fill="#b84f4f" /><rect x="442" y="2" width="20" height="20" fill="#b84f4f" /><rect x="2" y="22" width="20" height="20" fill="#b84f4f" /><rect x="82" y="22" width="20" height="20" fill="#ffdd00" /><rect x="102" y="22" width="20" height="20" fill="#ffdd00" /><rect x="122" y="22" width="20" height="20" fill="#eeb480" /><rect x="142" y="22" width="20" height="20" fill="#ffdd00" /><rect x="162" y="22" width="20" height="20" fill="#b84f4f" /><rect x="202" y="22" width="20" height="20" fill="#b1b714" /><rect x="222" y="22" width="20" height="20" fill="#aae0cb" /><rect x="262" y="22" width="20" height="20" fill="#b84f4f" /><rect x="302" y="22" width="20" height="20" fill="#b84f4f" /><rect x="342" y="22" width="20" height="20" fill="#b84f4f" /><rect x="402" y="22" width="20" height="20" fill="#b84f4f" /><rect x="442" y="22" width="20" height="20" fill="#b84f4f" /><rect x="2" y="42" width="20" height="20" fill="#b84f4f" /><rect x="62" y="42" width="20" height="20" fill="#ffdd00" /><rect x="82" y="42" width="20" height="20" fill="#a173b9" /><rect x="102" y="42" width="20" height="20" fill="#eeb480" /><rect x="122" y="42" width="20" height="20" fill="#a173b9" /><rect x="142" y="42" width="20" height="20" fill="#eeb480" /><rect x="162" y="42" width="20" height="20" fill="#ffdd00" /><rect x="182" y="42" width="20" height="20" fill="#b1b714" /><rect x="202" y="42" width="20" height="20" fill="#aae0cb" /><rect x="222" y="42" width="20" height="20" fill="#b1b714" /><rect x="242" y="42" width="20" height="20" fill="#aae0cb" /><rect x="262" y="42" width="20" height="20" fill="#b84f4f" /><rect x="282" y="42" width="20" height="20" fill="#b84f4f" /><rect x="342" y="42" width="20" height="20" fill="#b84f4f" /><rect x="362" y="42" width="20" height="20" fill="#b84f4f" /><rect x="402" y="42" width="20" height="20" fill="#b84f4f" /><rect x="442" y="42" width="20" height="20" fill="#b84f4f" /><rect x="2" y="62" width="20" height="20" fill="#b84f4f" /><rect x="42" y="62" width="20" height="20" fill="#ffdd00" /><rect x="62" y="62" width="20" height="20" fill="#eeb480" /><rect x="82" y="62" width="20" height="20" fill="#ffdd00" /><rect x="102" y="62" width="20" height="20" fill="#eeb480" /><rect x="122" y="62" width="20" height="20" fill="#aae0cb" /><rect x="142" y="62" width="20" height="20" fill="#ffdd00" /><rect x="162" y="62" width="20" height="20" fill="#ffdd00" /><rect x="182" y="62" width="20" height="20" fill="#aae0cb" /><rect x="202" y="62" width="20" height="20" fill="#b1b714" /><rect x="222" y="62" width="20" height="20" fill="#aae0cb" /><rect x="242" y="62" width="20" height="20" fill="#ffdd00" /><rect x="262" y="62" width="20" height="20" fill="#b84f4f" /><rect x="302" y="62" width="20" height="20" fill="#b84f4f" /><rect x="342" y="62" width="20" height="20" fill="#b84f4f" /><rect x="422" y="62" width="20" height="20" fill="#b84f4f" /><rect x="2" y="82" width="20" height="20" fill="#b84f4f" /><rect x="22" y="82" width="20" height="20" fill="#ffdd00" /><rect x="42" y="82" width="20" height="20" fill="#eeb480" /><rect x="62" y="82" width="20" height="20" fill="#a173b9" /><rect x="82" y="82" width="20" height="20" fill="#aae0cb" /><rect x="102" y="82" width="20" height="20" fill="#eeb480" /><rect x="122" y="82" width="20" height="20" fill="#aae0cb" /><rect x="162" y="82" width="20" height="20" fill="#ffdd00" /><rect x="182" y="82" width="20" height="20" fill="#a173b9" /><rect x="202" y="82" width="20" height="20" fill="#a173b9" /><rect x="222" y="82" width="20" height="20" fill="#aae0cb" /><rect x="242" y="82" width="20" height="20" fill="#a173b9" /><rect x="262" y="82" width="20" height="20" fill="#b84f4f" /><rect x="302" y="82" width="20" height="20" fill="#b84f4f" /><rect x="342" y="82" width="20" height="20" fill="#b84f4f" /><rect x="362" y="82" width="20" height="20" fill="#b84f4f" /><rect x="422" y="82" width="20" height="20" fill="#b84f4f" /><rect x="2" y="102" width="20" height="20" fill="#b84f4f" /><rect x="42" y="102" width="20" height="20" fill="#ffdd00" /><rect x="62" y="102" width="20" height="20" fill="#eeb480" /><rect x="82" y="102" width="20" height="20" fill="#eeb480" /><rect x="102" y="102" width="20" height="20" fill="#a173b9" /><rect x="122" y="102" width="20" height="20" fill="#aae0cb" /><rect x="162" y="102" width="20" height="20" fill="#b84f4f" /><rect x="222" y="102" width="20" height="20" fill="#aae0cb" /><rect x="2" y="122" width="20" height="20" fill="#b84f4f" /><rect x="42" y="122" width="20" height="20" fill="#ffdd00" /><rect x="62" y="122" width="20" height="20" fill="#a173b9" /><rect x="82" y="122" width="20" height="20" fill="#ffdd00" /><rect x="102" y="122" width="20" height="20" fill="#a173b9" /><rect x="122" y="122" width="20" height="20" fill="#aae0cb" /><rect x="162" y="122" width="20" height="20" fill="#b84f4f" /><rect x="222" y="122" width="20" height="20" fill="#aae0cb" /><rect x="242" y="122" width="20" height="20" fill="#aae0cb" /><rect x="262" y="122" width="20" height="20" fill="#aae0cb" /><rect x="282" y="122" width="20" height="20" fill="#aae0cb" /><rect x="302" y="122" width="20" height="20" fill="#aae0cb" /><rect x="402" y="122" width="20" height="20" fill="#ffdd00" /><rect x="2" y="142" width="20" height="20" fill="#b84f4f" /><rect x="22" y="142" width="20" height="20" fill="#b84f4f" /><rect x="42" y="142" width="20" height="20" fill="#b84f4f" /><rect x="62" y="142" width="20" height="20" fill="#ffdd00" /><rect x="82" y="142" width="20" height="20" fill="#b84f4f" /><rect x="102" y="142" width="20" height="20" fill="#a173b9" /><rect x="122" y="142" width="20" height="20" fill="#b84f4f" /><rect x="142" y="142" width="20" height="20" fill="#b84f4f" /><rect x="162" y="142" width="20" height="20" fill="#b84f4f" /><rect x="302" y="142" width="20" height="20" fill="#aae0cb" /><rect x="382" y="142" width="20" height="20" fill="#aae0cb" /><rect x="402" y="142" width="20" height="20" fill="#ffdd00" /><rect x="422" y="142" width="20" height="20" fill="#a173b9" /><rect x="22" y="162" width="20" height="20" fill="#eeb480" /><rect x="42" y="162" width="20" height="20" fill="#eeb480" /><rect x="102" y="162" width="20" height="20" fill="#a173b9" /><rect x="142" y="162" width="20" height="20" fill="#ffdd00" /><rect x="162" y="162" width="20" height="20" fill="#eeb480" /><rect x="202" y="162" width="20" height="20" fill="#b1b714" /><rect x="222" y="162" width="20" height="20" fill="#ffdd00" /><rect x="242" y="162" width="20" height="20" fill="#a173b9" /><rect x="302" y="162" width="20" height="20" fill="#aae0cb" /><rect x="362" y="162" width="20" height="20" fill="#a173b9" /><rect x="382" y="162" width="20" height="20" fill="#aae0cb" /><rect x="402" y="162" width="20" height="20" fill="#b1b714" /><rect x="422" y="162" width="20" height="20" fill="#a173b9" /><rect x="2" y="182" width="20" height="20" fill="#b1b714" /><rect x="22" y="182" width="20" height="20" fill="#ffdd00" /><rect x="42" y="182" width="20" height="20" fill="#ffdd00" /><rect x="62" y="182" width="20" height="20" fill="#ffdd00" /><rect x="82" y="182" width="20" height="20" fill="#ffdd00" /><rect x="102" y="182" width="20" height="20" fill="#eeb480" /><rect x="122" y="182" width="20" height="20" fill="#a173b9" /><rect x="142" y="182" width="20" height="20" fill="#a173b9" /><rect x="162" y="182" width="20" height="20" fill="#a173b9" /><rect x="182" y="182" width="20" height="20" fill="#b84f4f" /><rect x="202" y="182" width="20" height="20" fill="#b1b714" /><rect x="222" y="182" width="20" height="20" fill="#aae0cb" /><rect x="242" y="182" width="20" height="20" fill="#a173b9" /><rect x="302" y="182" width="20" height="20" fill="#aae0cb" /><rect x="342" y="182" width="20" height="20" fill="#a173b9" /><rect x="362" y="182" width="20" height="20" fill="#ffdd00" /><rect x="382" y="182" width="20" height="20" fill="#a173b9" /><rect x="402" y="182" width="20" height="20" fill="#aae0cb" /><rect x="422" y="182" width="20" height="20" fill="#b1b714" /><rect x="442" y="182" width="20" height="20" fill="#a173b9" /><rect x="2" y="202" width="20" height="20" fill="#b84f4f" /><rect x="22" y="202" width="20" height="20" fill="#b84f4f" /><rect x="42" y="202" width="20" height="20" fill="#eeb480" /><rect x="82" y="202" width="20" height="20" fill="#eeb480" /><rect x="142" y="202" width="20" height="20" fill="#ffdd00" /><rect x="162" y="202" width="20" height="20" fill="#a173b9" /><rect x="182" y="202" width="20" height="20" fill="#a173b9" /><rect x="202" y="202" width="20" height="20" fill="#a173b9" /><rect x="222" y="202" width="20" height="20" fill="#ffdd00" /><rect x="242" y="202" width="20" height="20" fill="#aae0cb" /><rect x="262" y="202" width="20" height="20" fill="#aae0cb" /><rect x="282" y="202" width="20" height="20" fill="#aae0cb" /><rect x="302" y="202" width="20" height="20" fill="#a173b9" /><rect x="322" y="202" width="20" height="20" fill="#aae0cb" /><rect x="342" y="202" width="20" height="20" fill="#aae0cb" /><rect x="362" y="202" width="20" height="20" fill="#aae0cb" /><rect x="382" y="202" width="20" height="20" fill="#ffdd00" /><rect x="402" y="202" width="20" height="20" fill="#ffdd00" /><rect x="422" y="202" width="20" height="20" fill="#a173b9" /><rect x="2" y="222" width="20" height="20" fill="#b1b714" /><rect x="22" y="222" width="20" height="20" fill="#ffdd00" /><rect x="42" y="222" width="20" height="20" fill="#a173b9" /><rect x="82" y="222" width="20" height="20" fill="#eeb480" /><rect x="162" y="222" width="20" height="20" fill="#b1b714" /><rect x="182" y="222" width="20" height="20" fill="#b84f4f" /><rect x="202" y="222" width="20" height="20" fill="#ffdd00" /><rect x="222" y="222" width="20" height="20" fill="#b84f4f" /><rect x="242" y="222" width="20" height="20" fill="#b1b714" /><rect x="282" y="222" width="20" height="20" fill="#a173b9" /><rect x="342" y="222" width="20" height="20" fill="#a173b9" /><rect x="362" y="222" width="20" height="20" fill="#b1b714" /><rect x="382" y="222" width="20" height="20" fill="#a173b9" /><rect x="402" y="222" width="20" height="20" fill="#aae0cb" /><rect x="422" y="222" width="20" height="20" fill="#eeb480" /><rect x="442" y="222" width="20" height="20" fill="#a173b9" /><rect x="2" y="242" width="20" height="20" fill="#aae0cb" /><rect x="22" y="242" width="20" height="20" fill="#aae0cb" /><rect x="42" y="242" width="20" height="20" fill="#aae0cb" /><rect x="62" y="242" width="20" height="20" fill="#b1b714" /><rect x="82" y="242" width="20" height="20" fill="#eeb480" /><rect x="102" y="242" width="20" height="20" fill="#ffdd00" /><rect x="202" y="242" width="20" height="20" fill="#ffdd00" /><rect x="282" y="242" width="20" height="20" fill="#a173b9" /><rect x="302" y="242" width="20" height="20" fill="#a173b9" /><rect x="322" y="242" width="20" height="20" fill="#a173b9" /><rect x="382" y="242" width="20" height="20" fill="#ffdd00" /><rect x="402" y="242" width="20" height="20" fill="#eeb480" /><rect x="422" y="242" width="20" height="20" fill="#a173b9" /><rect x="2" y="262" width="20" height="20" fill="#aae0cb" /><rect x="22" y="262" width="20" height="20" fill="#aae0cb" /><rect x="42" y="262" width="20" height="20" fill="#aae0cb" /><rect x="62" y="262" width="20" height="20" fill="#b1b714" /><rect x="82" y="262" width="20" height="20" fill="#eeb480" /><rect x="102" y="262" width="20" height="20" fill="#b1b714" /><rect x="142" y="262" width="20" height="20" fill="#ffdd00" /><rect x="162" y="262" width="20" height="20" fill="#ffdd00" /><rect x="182" y="262" width="20" height="20" fill="#ffdd00" /><rect x="202" y="262" width="20" height="20" fill="#ffdd00" /><rect x="322" y="262" width="20" height="20" fill="#a173b9" /><rect x="382" y="262" width="20" height="20" fill="#a173b9" /><rect x="402" y="262" width="20" height="20" fill="#eeb480" /><rect x="422" y="262" width="20" height="20" fill="#a173b9" /><rect x="2" y="282" width="20" height="20" fill="#aae0cb" /><rect x="22" y="282" width="20" height="20" fill="#aae0cb" /><rect x="42" y="282" width="20" height="20" fill="#aae0cb" /><rect x="82" y="282" width="20" height="20" fill="#b1b714" /><rect x="142" y="282" width="20" height="20" fill="#ffdd00" /><rect x="302" y="282" width="20" height="20" fill="#a173b9" /><rect x="322" y="282" width="20" height="20" fill="#a173b9" /><rect x="342" y="282" width="20" height="20" fill="#a173b9" /><rect x="362" y="282" width="20" height="20" fill="#ffdd00" /><rect x="402" y="282" width="20" height="20" fill="#a173b9" /><rect x="22" y="302" width="20" height="20" fill="#aae0cb" /><rect x="42" y="302" width="20" height="20" fill="#a173b9" /><rect x="62" y="302" width="20" height="20" fill="#a173b9" /><rect x="142" y="302" width="20" height="20" fill="#ffdd00" /><rect x="202" y="302" width="20" height="20" fill="#ffdd00" /><rect x="222" y="302" width="20" height="20" fill="#aae0cb" /><rect x="242" y="302" width="20" height="20" fill="#a173b9" /><rect x="262" y="302" width="20" height="20" fill="#eeb480" /><rect x="282" y="302" width="20" height="20" fill="#aae0cb" /><rect x="302" y="302" width="20" height="20" fill="#b1b714" /><rect x="322" y="302" width="20" height="20" fill="#a173b9" /><rect x="342" y="302" width="20" height="20" fill="#ffdd00" /><rect x="362" y="302" width="20" height="20" fill="#ffdd00" /><rect x="382" y="302" width="20" height="20" fill="#ffdd00" /><rect x="442" y="302" width="20" height="20" fill="#b84f4f" /><rect x="22" y="322" width="20" height="20" fill="#a173b9" /><rect x="42" y="322" width="20" height="20" fill="#b1b714" /><rect x="62" y="322" width="20" height="20" fill="#a173b9" /><rect x="82" y="322" width="20" height="20" fill="#a173b9" /><rect x="142" y="322" width="20" height="20" fill="#ffdd00" /><rect x="182" y="322" width="20" height="20" fill="#ffdd00" /><rect x="202" y="322" width="20" height="20" fill="#ffdd00" /><rect x="222" y="322" width="20" height="20" fill="#eeb480" /><rect x="242" y="322" width="20" height="20" fill="#eeb480" /><rect x="262" y="322" width="20" height="20" fill="#eeb480" /><rect x="282" y="322" width="20" height="20" fill="#eeb480" /><rect x="302" y="322" width="20" height="20" fill="#ffdd00" /><rect x="322" y="322" width="20" height="20" fill="#ffdd00" /><rect x="342" y="322" width="20" height="20" fill="#a173b9" /><rect x="362" y="322" width="20" height="20" fill="#eeb480" /><rect x="422" y="322" width="20" height="20" fill="#b84f4f" /><rect x="22" y="342" width="20" height="20" fill="#b84f4f" /><rect x="42" y="342" width="20" height="20" fill="#a173b9" /><rect x="62" y="342" width="20" height="20" fill="#ffdd00" /><rect x="82" y="342" width="20" height="20" fill="#ffdd00" /><rect x="102" y="342" width="20" height="20" fill="#ffdd00" /><rect x="122" y="342" width="20" height="20" fill="#ffdd00" /><rect x="142" y="342" width="20" height="20" fill="#ffdd00" /><rect x="202" y="342" width="20" height="20" fill="#a173b9" /><rect x="222" y="342" width="20" height="20" fill="#ffdd00" /><rect x="242" y="342" width="20" height="20" fill="#a173b9" /><rect x="262" y="342" width="20" height="20" fill="#eeb480" /><rect x="282" y="342" width="20" height="20" fill="#aae0cb" /><rect x="302" y="342" width="20" height="20" fill="#eeb480" /><rect x="322" y="342" width="20" height="20" fill="#b1b714" /><rect x="402" y="342" width="20" height="20" fill="#b84f4f" /><rect x="22" y="362" width="20" height="20" fill="#b84f4f" /><rect x="42" y="362" width="20" height="20" fill="#b1b714" /><rect x="62" y="362" width="20" height="20" fill="#aae0cb" /><rect x="82" y="362" width="20" height="20" fill="#a173b9" /><rect x="222" y="362" width="20" height="20" fill="#a173b9" /><rect x="282" y="362" width="20" height="20" fill="#eeb480" /><rect x="302" y="362" width="20" height="20" fill="#aae0cb" /><rect x="322" y="362" width="20" height="20" fill="#b1b714" /><rect x="382" y="362" width="20" height="20" fill="#b84f4f" /><rect x="2" y="382" width="20" height="20" fill="#eeb480" /><rect x="22" y="382" width="20" height="20" fill="#eeb480" /><rect x="42" y="382" width="20" height="20" fill="#eeb480" /><rect x="62" y="382" width="20" height="20" fill="#aae0cb" /><rect x="122" y="382" width="20" height="20" fill="#b84f4f" /><rect x="142" y="382" width="20" height="20" fill="#b84f4f" /><rect x="162" y="382" width="20" height="20" fill="#b84f4f" /><rect x="182" y="382" width="20" height="20" fill="#b84f4f" /><rect x="282" y="382" width="20" height="20" fill="#eeb480" /><rect x="302" y="382" width="20" height="20" fill="#ffdd00" /><rect x="322" y="382" width="20" height="20" fill="#ffdd00" /><rect x="362" y="382" width="20" height="20" fill="#b84f4f" /><circle cx="12" cy="212" r="3" fill="#000" /><line x1="12" y1="212" x2="32" y2="212" stroke="#000" stroke-width="2" /><polygon points="29,209 35,212 29,215" fill="#000" /><polyline points="2,182 22,182 22,202 42,202 42,222 22,222 22,242 2,242 2,182" stroke="#0008" fill="none" stroke-width="1" /></svg>