<?xml version="1.0" encoding="UTF-8"?>
<!DOCTYPE svg PUBLIC "-//W3C//DTD SVG 1.1//EN"
    "http://www.w3.org/Graphics/SVG/1.1/DTD/svg11.dtd">
<svg xmlns="http://www.w3.org/2000/svg" xmlns:xlink="http://www.w3.org/1999/xlink" version="1.1" width="284" height="624"><rect x="2" y="2" width="20" height="20" fill="#b2b73e" /><rect x="22" y="2" width="20" height="20" fill="#b2b73e" /><rect x="42" y="2" width="20" height="20" fill="#b2b73e" /><rect x="2" y="22" width="20" height="20" fill="#b2b73e" /><rect x="22" y="22" width="20" height="20" fill="#b2b73e" /><rect x="42" y="22" width="20" height="20" fill="#b2b73e" /><rect x="262" y="22" width="20" height="20" fill="#b2b73e" /><rect x="2" y="42" width="20" height="20" fill="#b2b73e" /><rect x="22" y="42" width="20" height="20" fill="#b2b73e" /><rect x="42" y="42" width="20" height="20" fill="#b2b73e" /><rect x="262" y="42" width="20" height="20" fill="#b2b73e" /><rect x="2" y="62" width="20" height="20" fill="#b2b73e" /><rect x="22" y="62" width="20" height="20" fill="#b2b73e" /><rect x="42" y="62" width="20" height="20" fill="#b2b73e" /><rect x="262" y="62" width="20" height="20" fill="#b2b73e" /><rect x="2" y="82" width="20" height="20" fill="#b2b73e" /><rect x="22" y="82" width="20" height="20" fill="#b2b73e" /><rect x="42" y="82" width="20" height="20" fill="#b2b73e" /><rect x="262" y="82" width="20" height="20" fill="#b2b73e" /><rect x="2" y="102" width="20" height="20" fill="#b2b73e" /><rect x="22" y="102" width="20" height="20" fill="#b2b73e" /><rect x="42" y="102" width="20" height="20" fill="#b2b73e" /><rect x="262" y="102" width="20" height="20" fill="#b2b73e" /><rect x="2" y="122" width="20" height="20" fill="#b2b73e" /><rect x="22" y="122" width="20" height="20" fill="#b2b73e" /><rect x="42" y="122" width="20" height="20" fill="#b2b73e" /><rect x="262" y="122" width="20" height="20" fill="#b2b73e" /><rect x="2" y="142" width="20" height="20" fill="#b2b73e" /><rect x="22" y="142" width="20" height="20" fill="#b2b73e" /><rect x="42" y="142" width="20" height="20" fill="#b2b73e" /><rect x="262" y="142" width="20" height="20" fill="#b2b73e" /><rect x="2" y="162" width="20" height="20" fill="#b2b73e" /><rect x="22" y="162" width="20" height="20" fill="#b2b73e" /><rect x="42" y="162" width="20" height="20" fill="#b2b73e" /><rect x="62" y="162" width="20" height="20" fill="#ffdd00" /><rect x="262" y="162" width="20" height="20" fill="#b2b73e" /><rect x="2" y="182" width="20" height="20" fill="#b2b73e" /><rect x="22" y="182" width="20" height="20" fill="#b2b73e" /><rect x="42" y="182" width="20" height="20" fill="#ffdd00" /><rect x="62" y="182" width="20" height="20" fill="#b5decc" /><rect x="82" y="182" width="20" height="20" fill="#ffdd00" /><rect x="142" y="182" width="20" height="20" fill="#eeb480" /><rect x="262" y="182" width="20" height="20" fill="#b2b73e" /><rect x="2" y="202" width="20" height="20" fill="#b2b73e" /><rect x="22" y="202" width="20" height="20" fill="#ffdd00" /><rect x="42" y="202" width="20" height="20" fill="#b5decc" /><rect x="62" y="202" width="20" height="20" fill="#b2b73e" /><rect x="82" y="202" width="20" height="20" fill="#eeb480" /><rect x="102" y="202" width="20" height="20" fill="#ffdd00" /><rect x="122" y="202" width="20" height="20" fill="#b2b73e" /><rect x="142" y="202" width="20" height="20" fill="#b2b73e" /><rect x="162" y="202" width="20" height="20" fill="#b2b73e" /><rect x="262" y="202" width="20" height="20" fill="#b2b73e" /><rect x="2" y="222" width="20" height="20" fill="#b2b73e" /><rect x="22" y="222" width="20" height="20" fill="#b2b73e" /><rect x="42" y="222" width="20" height="20" fill="#ffdd00" /><rect x="62" y="222" width="20" height="20" fill="#b5decc" /><rect x="82" y="222" width="20" height="20" fill="#b5decc" /><rect x="102" y="222" width="20" height="20" fill="#eeb480" /><rect x="122" y="222" width="20" height="20" fill="#b5decc" /><rect x="142" y="222" width="20" height="20" fill="#b5decc" /><rect x="162" y="222" width="20" height="20" fill="#ffdd00" /><rect x="262" y="222" width="20" height="20" fill="#b2b73e" /><rect x="2" y="242" width="20" height="20" fill="#b2b73e" /><rect x="22" y="242" width="20" height="20" fill="#b2b73e" /><rect x="42" y="242" width="20" height="20" fill="#b2b73e" /><rect x="62" y="242" width="20" height="20" fill="#b2b73e" /><rect x="82" y="242" width="20" height="20" fill="#b2b73e" /><rect x="102" y="242" width="20" height="20" fill="#eeb480" /><rect x="142" y="242" width="20" height="20" fill="#b2b73e" /><rect x="162" y="242" width="20" height="20" fill="#b5decc" /><rect x="182" y="242" width="20" height="20" fill="#ffdd00" /><rect x="262" y="242" width="20" height="20" fill="#b2b73e" /><rect x="2" y="262" width="20" height="20" fill="#b2b73e" /><rect x="22" y="262" width="20" height="20" fill="#b2b73e" /><rect x="42" y="262" width="20" height="20" fill="#b2b73e" /><rect x="62" y="262" width="20" height="20" fill="#eeb480" /><rect x="82" y="262" width="20" height="20" fill="#ffdd00" /><rect x="102" y="262" width="20" height="20" fill="#eeb480" /><rect x="122" y="262" width="20" height="20" fill="#ffdd00" /><rect x="142" y="262" width="20" height="20" fill="#b5decc" /><rect x="162" y="262" width="20" height="20" fill="#ffdd00" /><rect x="242" y="262" width="20" height="20" fill="#ffdd00" /><rect x="262" y="262" width="20" height="20" fill="#b2b73e" /><rect x="2" y="282" width="20" height="20" fill="#b2b73e" /><rect x="22" y="282" width="20" height="20" fill="#b2b73e" /><rect x="42" y="282" width="20" height="20" fill="#b2b73e" /><rect x="62" y="282" width="20" height="20" fill="#ffdd00" /><rect x="82" y="282" width="20" height="20" fill="#ffdd00" /><rect x="102" y="282" width="20" height="20" fill="#eeb480" /><rect x="122" y="282" width="20" height="20" fill="#ffdd00" /><rect x="142" y="282" width="20" height="20" fill="#ffdd00" /><rect x="242" y="282" width="20" height="20" fill="#ffdd00" /><rect x="262" y="282" width="20" height="20" fill="#b2b73e" /><rect x="2" y="302" width="20" height="20" fill="#b2b73e" /><rect x="22" y="302" width="20" height="20" fill="#b2b73e" /><rect x="42" y="302" width="20" height="20" fill="#b2b73e" /><rect x="62" y="302" width="20" height="20" fill="#b2b73e" /><rect x="82" y="302" width="20" height="20" fill="#b2b73e" /><rect x="102" y="302" width="20" height="20" fill="#b2b73e" /><rect x="122" y="302" width="20" height="20" fill="#ffdd00" /><rect x="142" y="302" width="20" height="20" fill="#eeb480" /><rect x="162" y="302" width="20" height="20" fill="#eeb480" /><rect x="182" y="302" width="20" height="20" fill="#eeb480" /><rect x="242" y="302" width="20" height="20" fill="#ffdd00" /><rect x="262" y="302" width="20" height="20" fill="#b2b73e" /><rect x="2" y="322" width="20" height="20" fill="#b2b73e" /><rect x="22" y="322" width="20" height="20" fill="#b2b73e" /><rect x="42" y="322" width="20" height="20" fill="#b2b73e" /><rect x="62" y="322" width="20" height="20" fill="#ffdd00" /><rect x="82" y="322" width="20" height="20" fill="#ffdd00" /><rect x="102" y="322" width="20" height="20" fill="#eeb480" /><rect x="122" y="322" width="20" height="20" fill="#b5decc" /><rect x="142" y="322" width="20" height="20" fill="#eeb480" /><rect x="162" y="322" width="20" height="20" fill="#eeb480" /><rect x="182" y="322" width="20" height="20" fill="#eeb480" /><rect x="202" y="322" width="20" height="20" fill="#eeb480" /><rect x="222" y="322" width="20" height="20" fill="#eeb480" /><rect x="242" y="322" width="20" height="20" fill="#ffdd00" /><rect x="262" y="322" width="20" height="20" fill="#b2b73e" /><rect x="2" y="342" width="20" height="20" fill="#b2b73e" /><rect x="22" y="342" width="20" height="20" fill="#b2b73e" /><rect x="42" y="342" width="20" height="20" fill="#b2b73e" /><rect x="82" y="342" width="20" height="20" fill="#b5decc" /><rect x="102" y="342" width="20" height="20" fill="#eeb480" /><rect x="122" y="342" width="20" height="20" fill="#b5decc" /><rect x="142" y="342" width="20" height="20" fill="#eeb480" /><rect x="162" y="342" width="20" height="20" fill="#eeb480" /><rect x="182" y="342" width="20" height="20" fill="#eeb480" /><rect x="202" y="342" width="20" height="20" fill="#eeb480" /><rect x="222" y="342" width="20" height="20" fill="#eeb480" /><rect x="242" y="342" width="20" height="20" fill="#ffdd00" /><rect x="262" y="342" width="20" height="20" fill="#b2b73e" /><rect x="2" y="362" width="20" height="20" fill="#b2b73e" /><rect x="22" y="362" width="20" height="20" fill="#b2b73e" /><rect x="42" y="362" width="20" height="20" fill="#b2b73e" /><rect x="62" y="362" width="20" height="20" fill="#eeb480" /><rect x="82" y="362" width="20" height="20" fill="#b5decc" /><rect x="102" y="362" width="20" height="20" fill="#eeb480" /><rect x="122" y="362" width="20" height="20" fill="#b5decc" /><rect x="142" y="362" width="20" height="20" fill="#ffdd00" /><rect x="162" y="362" width="20" height="20" fill="#eeb480" /><rect x="182" y="362" width="20" height="20" fill="#eeb480" /><rect x="202" y="362" width="20" height="20" fill="#eeb480" /><rect x="222" y="362" width="20" height="20" fill="#eeb480" /><rect x="242" y="362" width="20" height="20" fill="#ffdd00" /><rect x="262" y="362" width="20" height="20" fill="#b2b73e" /><rect x="2" y="382" width="20" height="20" fill="#b2b73e" /><rect x="22" y="382" width="20" height="20" fill="#b2b73e" /><rect x="42" y="382" width="20" height="20" fill="#ffdd00" /><rect x="62" y="382" width="20" height="20" fill="#ffdd00" /><rect x="82" y="382" width="20" height="20" fill="#ffdd00" /><rect x="102" y="382" width="20" height="20" fill="#eeb480" /><rect x="122" y="382" width="20" height="20" fill="#ffdd00" /><rect x="142" y="382" width="20" height="20" fill="#eeb480" /><rect x="162" y="382" width="20" height="20" fill="#b2b73e" /><rect x="182" y="382" width="20" height="20" fill="#b2b73e" /><rect x="202" y="382" width="20" height="20" fill="#eeb480" /><rect x="222" y="382" width="20" height="20" fill="#eeb480" /><rect x="242" y="382" width="20" height="20" fill="#ffdd00" /><rect x="262" y="382" width="20" height="20" fill="#b2b73e" /><rect x="2" y="402" width="20" height="20" fill="#b2b73e" /><rect x="22" y="402" width="20" height="20" fill="#b2b73e" /><rect x="42" y="402" width="20" height="20" fill="#b2b73e" /><rect x="62" y="402" width="20" height="20" fill="#ffdd00" /><rect x="82" y="402" width="20" height="20" fill="#b5decc" /><rect x="102" y="402" width="20" height="20" fill="#b5decc" /><rect x="122" y="402" width="20" height="20" fill="#eeb480" /><rect x="142" y="402" width="20" height="20" fill="#b5decc" /><rect x="162" y="402" width="20" height="20" fill="#b5decc" /><rect x="182" y="402" width="20" height="20" fill="#b5decc" /><rect x="202" y="402" width="20" height="20" fill="#eeb480" /><rect x="222" y="402" width="20" height="20" fill="#eeb480" /><rect x="242" y="402" width="20" height="20" fill="#ffdd00" /><rect x="262" y="402" width="20" height="20" fill="#b2b73e" /><rect x="2" y="422" width="20" height="20" fill="#b2b73e" /><rect x="22" y="422" width="20" height="20" fill="#b2b73e" /><rect x="42" y="422" width="20" height="20" fill="#b2b73e" /><rect x="122" y="422" width="20" height="20" fill="#eeb480" /><rect x="162" y="422" width="20" height="20" fill="#eeb480" /><rect x="182" y="422" width="20" height="20" fill="#eeb480" /><rect x="222" y="422" width="20" height="20" fill="#eeb480" /><rect x="242" y="422" width="20" height="20" fill="#ffdd00" /><rect x="262" y="422" width="20" height="20" fill="#b2b73e" /><rect x="2" y="442" width="20" height="20" fill="#b2b73e" /><rect x="22" y="442" width="20" height="20" fill="#b2b73e" /><rect x="42" y="442" width="20" height="20" fill="#b2b73e" /><rect x="102" y="442" width="20" height="20" fill="#eeb480" /><rect x="122" y="442" width="20" height="20" fill="#eeb480" /><rect x="142" y="442" width="20" height="20" fill="#eeb480" /><rect x="162" y="442" width="20" height="20" fill="#b5decc" /><rect x="182" y="442" width="20" height="20" fill="#eeb480" /><rect x="222" y="442" width="20" height="20" fill="#eeb480" /><rect x="242" y="442" width="20" height="20" fill="#ffdd00" /><rect x="262" y="442" width="20" height="20" fill="#b2b73e" /><rect x="2" y="462" width="20" height="20" fill="#b2b73e" /><rect x="22" y="462" width="20" height="20" fill="#b2b73e" /><rect x="42" y="462" width="20" height="20" fill="#b2b73e" /><rect x="102" y="462" width="20" height="20" fill="#b2b73e" /><rect x="122" y="462" width="20" height="20" fill="#eeb480" /><rect x="142" y="462" width="20" height="20" fill="#b5decc" /><rect x="162" y="462" width="20" height="20" fill="#ffdd00" /><rect x="182" y="462" width="20" height="20" fill="#eeb480" /><rect x="202" y="462" width="20" height="20" fill="#b2b73e" /><rect x="222" y="462" width="20" height="20" fill="#eeb480" /><rect x="242" y="462" width="20" height="20" fill="#ffdd00" /><rect x="262" y="462" width="20" height="20" fill="#b2b73e" /><rect x="2" y="482" width="20" height="20" fill="#b2b73e" /><rect x="22" y="482" width="20" height="20" fill="#b2b73e" /><rect x="42" y="482" width="20" height="20" fill="#b2b73e" /><rect x="102" y="482" width="20" height="20" fill="#ffdd00" /><rect x="122" y="482" width="20" height="20" fill="#b5decc" /><rect x="142" y="482" width="20" height="20" fill="#ffdd00" /><rect x="162" y="482" width="20" height="20" fill="#b2b73e" /><rect x="182" y="482" width="20" height="20" fill="#b2b73e" /><rect x="202" y="482" width="20" height="20" fill="#b2b73e" /><rect x="222" y="482" width="20" height="20" fill="#eeb480" /><rect x="242" y="482" width="20" height="20" fill="#ffdd00" /><rect x="262" y="482" width="20" height="20" fill="#b2b73e" /><rect x="2" y="502" width="20" height="20" fill="#b2b73e" /><rect x="22" y="502" width="20" height="20" fill="#b2b73e" /><rect x="42" y="502" width="20" height="20" fill="#b2b73e" /><rect x="62" y="502" width="20" height="20" fill="#b2b73e" /><rect x="82" y="502" width="20" height="20" fill="#b5decc" /><rect x="102" y="502" width="20" height="20" fill="#eeb480" /><rect x="122" y="502" width="20" height="20" fill="#b5decc" /><rect x="142" y="502" width="20" height="20" fill="#eeb480" /><rect x="162" y="502" width="20" height="20" fill="#eeb480" /><rect x="182" y="502" width="20" height="20" fill="#eeb480" /><rect x="202" y="502" width="20" height="20" fill="#eeb480" /><rect x="222" y="502" width="20" height="20" fill="#eeb480" /><rect x="242" y="502" width="20" height="20" fill="#ffdd00" /><rect x="262" y="502" width="20" height="20" fill="#b2b73e" /><rect x="2" y="522" width="20" height="20" fill="#b2b73e" /><rect x="22" y="522" width="20" height="20" fill="#b2b73e" /><rect x="42" y="522" width="20" height="20" fill="#b2b73e" /><rect x="62" y="522" width="20" height="20" fill="#b2b73e" /><rect x="82" y="522" width="20" height="20" fill="#ffdd00" /><rect x="102" y="522" width="20" height="20" fill="#b5decc" /><rect x="122" y="522" width="20" height="20" fill="#b5decc" /><rect x="142" y="522" width="20" height="20" fill="#eeb480" /><rect x="162" y="522" width="20" height="20" fill="#ffdd00" /><rect x="182" y="522" width="20" height="20" fill="#ffdd00" /><rect x="202" y="522" width="20" height="20" fill="#ffdd00" /><rect x="222" y="522" width="20" height="20" fill="#ffdd00" /><rect x="242" y="522" width="20" height="20" fill="#ffdd00" /><rect x="262" y="522" width="20" height="20" fill="#b2b73e" /><rect x="2" y="542" width="20" height="20" fill="#b2b73e" /><rect x="22" y="542" width="20" height="20" fill="#b2b73e" /><rect x="42" y="542" width="20" height="20" fill="#b2b73e" /><rect x="62" y="542" width="20" height="20" fill="#b2b73e" /><rect x="82" y="542" width="20" height="20" fill="#eeb480" /><rect x="102" y="542" width="20" height="20" fill="#ffdd00" /><rect x="122" y="542" width="20" height="20" fill="#eeb480" /><rect x="142" y="542" width="20" height="20" fill="#eeb480" /><rect x="162" y="542" width="20" height="20" fill="#ffdd00" /><rect x="182" y="542" width="20" height="20" fill="#ffdd00" /><rect x="202" y="542" width="20" height="20" fill="#ffdd00" /><rect x="222" y="542" width="20" height="20" fill="#ffdd00" /><rect x="242" y="542" width="20" height="20" fill="#ffdd00" /><rect x="262" y="542" width="20" height="20" fill="#b2b73e" /><rect x="2" y="562" width="20" height="20" fill="#b2b73e" /><rect x="22" y="562" width="20" height="20" fill="#b2b73e" /><rect x="42" y="562" width="20" height="20" fill="#b2b73e" /><rect x="62" y="562" width="20" height="20" fill="#b2b73e" /><rect x="82" y="562" width="20" height="20" fill="#eeb480" /><rect x="102" y="562" width="20" height="20" fill="#ffdd00" /><rect x="122" y="562" width="20" height="20" fill="#eeb480" /><rect x="142" y="562" width="20" height="20" fill="#ffdd00" /><rect x="162" y="562" width="20" height="20" fill="#ffdd00" /><rect x="182" y="562" width="20" height="20" fill="#ffdd00" /><rect x="202" y="562" width="20" height="20" fill="#ffdd00" /><rect x="222" y="562" width="20" height="20" fill="#ffdd00" /><rect x="242" y="562" width="20" height="20" fill="#ffdd00" /><rect x="262" y="562" width="20" height="20" fill="#b2b73e" /><rect x="22" y="582" width="20" height="20" fill="#b2b73e" /><rect x="42" y="582" width="20" height="20" fill="#b2b73e" /><rect x="62" y="582" width="20" height="20" fill="#b2b73e" /><rect x="82" y="582" width="20" height="20" fill="#b5decc" /><rect x="102" y="582" width="20" height="20" fill="#ffdd00" /><rect x="122" y="582" width="20" height="20" fill="#b5decc" /><rect x="142" y="582" width="20" height="20" fill="#ffdd00" /><rect x="162" y="582" width="20" height="20" fill="#ffdd00" /><rect x="182" y="582" width="20" height="20" fill="#ffdd00" /><rect x="202" y="582" width="20" height="20" fill="#ffdd00" /><rect x="222" y="582" width="20" height="20" fill="#ffdd00" /><rect x="242" y="582" width="20" height="20" fill="#ffdd00" /><rect x="262" y="582" width="20" height="20" fill="#b2b73e" /><rect x="102" y="602" width="20" height="20" fill="#eeb480" /><rect x="122" y="602" width="20" height="20" fill="#b2b73e" /><rect x="142" y="602" width="20" height="20" fill="#b2b73e" /><rect x="162" y="602" width="20" height="20" fill="#b2b73e" /><rect x="182" y="602" width="20" height="20" fill="#b2b73e" /><rect x="202" y="602" width="20" height="20" fill="#b2b73e" /><rect x="222" y="602" width="20" height="20" fill="#b2b73e" /><rect x="242" y="602" width="20" height="20" fill="#b2b73e" /><rect x="262" y="602" width="20" height="20" fill="#b2b73e" /><circle cx="12" cy="312" r="3" fill="#000" /><line x1="12" y1="312" x2="32" y2="312" stroke="#000" stroke-width="2" /><polygon points="29,309 35,312 29,315" fill="#000" /><polyline points="2,282 22,282 22,302 42,302 42,322 22,322 22,342 2,342 2,282" stroke="#0008" fill="none" stroke-width="1" /></svg>