<?xml version="1.0" encoding="UTF-8"?>
<!DOCTYPE svg PUBLIC "-//W3C//DTD SVG 1.1//EN"
    "http://www.w3.org/Graphics/SVG/1.1/DTD/svg11.dtd">
<svg xmlns="http://www.w3.org/2000/svg" xmlns:xlink="http://www.w3.org/1999/xlink" version="1.1" width="280" height="620"><a href="examples/minimal.png"><rect x="0" y="0" width="20" height="20" fill="#b2b73e" /><rect x="20" y="0" width="20" height="20" fill="#b2b73e" /><rect x="40" y="0" width="20" height="20" fill="#b2b73e" /><rect x="0" y="20" width="20" height="20" fill="#b2b73e" /><rect x="20" y="20" width="20" height="20" fill="#b2b73e" /><rect x="40" y="20" width="20" height="20" fill="#b2b73e" /><rect x="260" y="20" width="20" height="20" fill="#b2b73e" /><rect x="0" y="40" width="20" height="20" fill="#b2b73e" /><rect x="20" y="40" width="20" height="20" fill="#b2b73e" /><rect x="40" y="40" width="20" height="20" fill="#b2b73e" /><rect x="260" y="40" width="20" height="20" fill="#b2b73e" /><rect x="0" y="60" width="20" height="20" fill="#b2b73e" /><rect x="20" y="60" width="20" height="20" fill="#b2b73e" /><rect x="40" y="60" width="20" height="20" fill="#b2b73e" /><rect x="260" y="60" width="20" height="20" fill="#b2b73e" /><rect x="0" y="80" width="20" height="20" fill="#b2b73e" /><rect x="20" y="80" width="20" height="20" fill="#b2b73e" /><rect x="40" y="80" width="20" height="20" fill="#b2b73e" /><rect x="260" y="80" width="20" height="20" fill="#b2b73e" /><rect x="0" y="100" width="20" height="20" fill="#b2b73e" /><rect x="20" y="100" width="20" height="20" fill="#b2b73e" /><rect x="40" y="100" width="20" height="20" fill="#b2b73e" /><rect x="260" y="100" width="20" height="20" fill="#b2b73e" /><rect x="0" y="120" width="20" height="20" fill="#b2b73e" /><rect x="20" y="120" width="20" height="20" fill="#b2b73e" /><rect x="40" y="120" width="20" height="20" fill="#b2b73e" /><rect x="260" y="120" width="20" height="20" fill="#b2b73e" /><rect x="0" y="140" width="20" height="20" fill="#b2b73e" /><rect x="20" y="140" width="20" height="20" fill="#b2b73e" /><rect x="40" y="140" width="20" height="20" fill="#b2b73e" /><rect x="260" y="140" width="20" height="20" fill="#b2b73e" /><rect x="0" y="160" width="20" height="20" fill="#b2b73e" /><rect x="20" y="160" width="20" height="20" fill="#b2b73e" /><rect x="40" y="160" width="20" height="20" fill="#b2b73e" /><rect x="60" y="160" width="20" height="20" fill="#ffdd00" /><rect x="260" y="160" width="20" height="20" fill="#b2b73e" /><rect x="0" y="180" width="20" height="20" fill="#b2b73e" /><rect x="20" y="180" width="20" height="20" fill="#b2b73e" /><rect x="40" y="180" width="20" height="20" fill="#ffdd00" /><rect x="60" y="180" width="20" height="20" fill="#b5decc" /><rect x="80" y="180" width="20" height="20" fill="#ffdd00" /><rect x="140" y="180" width="20" height="20" fill="#eeb480" /><rect x="260" y="180" width="20" height="20" fill="#b2b73e" /><rect x="0" y="200" width="20" height="20" fill="#b2b73e" /><rect x="20" y="200" width="20" height="20" fill="#ffdd00" /><rect x="40" y="200" width="20" height="20" fill="#b5decc" /><rect x="60" y="200" width="20" height="20" fill="#b2b73e" /><rect x="80" y="200" width="20" height="20" fill="#eeb480" /><rect x="100" y="200" width="20" height="20" fill="#ffdd00" /><rect x="120" y="200" width="20" height="20" fill="#b2b73e" /><rect x="140" y="200" width="20" height="20" fill="#b2b73e" /><rect x="160" y="200" width="20" height="20" fill="#b2b73e" /><rect x="260" y="200" width="20" height="20" fill="#b2b73e" /><rect x="0" y="220" width="20" height="20" fill="#b2b73e" /><rect x="20" y="220" width="20" height="20" fill="#b2b73e" /><rect x="40" y="220" width="20" height="20" fill="#ffdd00" /><rect x="60" y="220" width="20" height="20" fill="#b5decc" /><rect x="80" y="220" width="20" height="20" fill="#b5decc" /><rect x="100" y="220" width="20" height="20" fill="#eeb480" /><rect x="120" y="220" width="20" height="20" fill="#b5decc" /><rect x="140" y="220" width="20" height="20" fill="#b5decc" /><rect x="160" y="220" width="20" height="20" fill="#ffdd00" /><rect x="260" y="220" width="20" height="20" fill="#b2b73e" /><rect x="0" y="240" width="20" height="20" fill="#b2b73e" /><rect x="20" y="240" width="20" height="20" fill="#b2b73e" /><rect x="40" y="240" width="20" height="20" fill="#b2b73e" /><rect x="60" y="240" width="20" height="20" fill="#b2b73e" /><rect x="80" y="240" width="20" height="20" fill="#b2b73e" /><rect x="100" y="240" width="20" height="20" fill="#eeb480" /><rect x="140" y="240" width="20" height="20" fill="#b2b73e" /><rect x="160" y="240" width="20" height="20" fill="#b5decc" /><rect x="180" y="240" width="20" height="20" fill="#ffdd00" /><rect x="260" y="240" width="20" height="20" fill="#b2b73e" /><rect x="0" y="260" width="20" height="20" fill="#b2b73e" /><rect x="20" y="260" width="20" height="20" fill="#b2b73e" /><rect x="40" y="260" width="20" height="20" fill="#b2b73e" /><rect x="60" y="260" width="20" height="20" fill="#eeb480" /><rect x="80" y="260" width="20" height="20" fill="#ffdd00" /><rect x="100" y="260" width="20" height="20" fill="#eeb480" /><rect x="120" y="260" width="20" height="20" fill="#ffdd00" /><rect x="140" y="260" width="20" height="20" fill="#b5decc" /><rect x="160" y="260" width="20" height="20" fill="#ffdd00" /><rect x="240" y="260" width="20" height="20" fill="#ffdd00" /><rect x="260" y="260" width="20" height="20" fill="#b2b73e" /><rect x="0" y="280" width="20" height="20" fill="#b2b73e" /><rect x="20" y="280" width="20" height="20" fill="#b2b73e" /><rect x="40" y="280" width="20" height="20" fill="#b2b73e" /><rect x="60" y="280" width="20" height="20" fill="#ffdd00" /><rect x="80" y="280" width="20" height="20" fill="#ffdd00" /><rect x="100" y="280" width="20" height="20" fill="#eeb480" /><rect x="120" y="280" width="20" height="20" fill="#ffdd00" /><rect x="140" y="280" width="20" height="20" fill="#ffdd00" /><rect x="240" y="280" width="20" height="20" fill="#ffdd00" /><rect x="260" y="280" width="20" height="20" fill="#b2b73e" /><rect x="0" y="300" width="20" height="20" fill="#b2b73e" /><rect x="20" y="300" width="20" height="20" fill="#b2b73e" /><rect x="40" y="300" width="20" height="20" fill="#b2b73e" /><rect x="60" y="300" width="20" height="20" fill="#b2b73e" /><rect x="80" y="300" width="20" height="20" fill="#b2b73e" /><rect x="100" y="300" width="20" height="20" fill="#b2b73e" /><rect x="120" y="300" width="20" height="20" fill="#ffdd00" /><rect x="140" y="300" width="20" height="20" fill="#eeb480" /><rect x="160" y="300" width="20" height="20" fill="#eeb480" /><rect x="180" y="300" width="20" height="20" fill="#eeb480" /><rect x="240" y="300" width="20" height="20" fill="#ffdd00" /><rect x="260" y="300" width="20" height="20" fill="#b2b73e" /><rect x="0" y="320" width="20" height="20" fill="#b2b73e" /><rect x="20" y="320" width="20" height="20" fill="#b2b73e" /><rect x="40" y="320" width="20" height="20" fill="#b2b73e" /><rect x="60" y="320" width="20" height="20" fill="#ffdd00" /><rect x="80" y="320" width="20" height="20" fill="#ffdd00" /><rect x="100" y="320" width="20" height="20" fill="#eeb480" /><rect x="120" y="320" width="20" height="20" fill="#b5decc" /><rect x="140" y="320" width="20" height="20" fill="#eeb480" /><rect x="160" y="320" width="20" height="20" fill="#eeb480" /><rect x="180" y="320" width="20" height="20" fill="#eeb480" /><rect x="200" y="320" width="20" height="20" fill="#eeb480" /><rect x="220" y="320" width="20" height="20" fill="#eeb480" /><rect x="240" y="320" width="20" height="20" fill="#ffdd00" /><rect x="260" y="320" width="20" height="20" fill="#b2b73e" /><rect x="0" y="340" width="20" height="20" fill="#b2b73e" /><rect x="20" y="340" width="20" height="20" fill="#b2b73e" /><rect x="40" y="340" width="20" height="20" fill="#b2b73e" /><rect x="80" y="340" width="20" height="20" fill="#b5decc" /><rect x="100" y="340" width="20" height="20" fill="#eeb480" /><rect x="120" y="340" width="20" height="20" fill="#b5decc" /><rect x="140" y="340" width="20" height="20" fill="#eeb480" /><rect x="160" y="340" width="20" height="20" fill="#eeb480" /><rect x="180" y="340" width="20" height="20" fill="#eeb480" /><rect x="200" y="340" width="20" height="20" fill="#eeb480" /><rect x="220" y="340" width="20" height="20" fill="#eeb480" /><rect x="240" y="340" width="20" height="20" fill="#ffdd00" /><rect x="260" y="340" width="20" height="20" fill="#b2b73e" /><rect x="0" y="360" width="20" height="20" fill="#b2b73e" /><rect x="20" y="360" width="20" height="20" fill="#b2b73e" /><rect x="40" y="360" width="20" height="20" fill="#b2b73e" /><rect x="60" y="360" width="20" height="20" fill="#eeb480" /><rect x="80" y="360" width="20" height="20" fill="#b5decc" /><rect x="100" y="360" width="20" height="20" fill="#eeb480" /><rect x="120" y="360" width="20" height="20" fill="#b5decc" /><rect x="140" y="360" width="20" height="20" fill="#ffdd00" /><rect x="160" y="360" width="20" height="20" fill="#eeb480" /><rect x="180" y="360" width="20" height="20" fill="#eeb480" /><rect x="200" y="360" width="20" height="20" fill="#eeb480" /><rect x="220" y="360" width="20" height="20" fill="#eeb480" /><rect x="240" y="360" width="20" height="20" fill="#ffdd00" /><rect x="260" y="360" width="20" height="20" fill="#b2b73e" /><rect x="0" y="380" width="20" height="20" fill="#b2b73e" /><rect x="20" y="380" width="20" height="20" fill="#b2b73e" /><rect x="40" y="380" width="20" height="20" fill="#ffdd00" /><rect x="60" y="380" width="20" height="20" fill="#ffdd00" /><rect x="80" y="380" width="20" height="20" fill="#ffdd00" /><rect x="100" y="380" width="20" height="20" fill="#eeb480" /><rect x="120" y="380" width="20" height="20" fill="#ffdd00" /><rect x="140" y="380" width="20" height="20" fill="#eeb480" /><rect x="160" y="380" width="20" height="20" fill="#b2b73e" /><rect x="180" y="380" width="20" height="20" fill="#b2b73e" /><rect x="200" y="380" width="20" height="20" fill="#eeb480" /><rect x="220" y="380" width="20" height="20" fill="#eeb480" /><rect x="240" y="380" width="20" height="20" fill="#ffdd00" /><rect x="260" y="380" width="20" height="20" fill="#b2b73e" /><rect x="0" y="400" width="20" height="20" fill="#b2b73e" /><rect x="20" y="400" width="20" height="20" fill="#b2b73e" /><rect x="40" y="400" width="20" height="20" fill="#b2b73e" /><rect x="60" y="400" width="20" height="20" fill="#ffdd00" /><rect x="80" y="400" width="20" height="20" fill="#b5decc" /><rect x="100" y="400" width="20" height="20" fill="#b5decc" /><rect x="120" y="400" width="20" height="20" fill="#eeb480" /><rect x="140" y="400" width="20" height="20" fill="#b5decc" /><rect x="160" y="400" width="20" height="20" fill="#b5decc" /><rect x="180" y="400" width="20" height="20" fill="#b5decc" /><rect x="200" y="400" width="20" height="20" fill="#eeb480" /><rect x="220" y="400" width="20" height="20" fill="#eeb480" /><rect x="240" y="400" width="20" height="20" fill="#ffdd00" /><rect x="260" y="400" width="20" height="20" fill="#b2b73e" /><rect x="0" y="420" width="20" height="20" fill="#b2b73e" /><rect x="20" y="420" width="20" height="20" fill="#b2b73e" /><rect x="40" y="420" width="20" height="20" fill="#b2b73e" /><rect x="120" y="420" width="20" height="20" fill="#eeb480" /><rect x="160" y="420" width="20" height="20" fill="#eeb480" /><rect x="180" y="420" width="20" height="20" fill="#eeb480" /><rect x="220" y="420" width="20" height="20" fill="#eeb480" /><rect x="240" y="420" width="20" height="20" fill="#ffdd00" /><rect x="260" y="420" width="20" height="20" fill="#b2b73e" /><rect x="0" y="440" width="20" height="20" fill="#b2b73e" /><rect x="20" y="440" width="20" height="20" fill="#b2b73e" /><rect x="40" y="440" width="20" height="20" fill="#b2b73e" /><rect x="100" y="440" width="20" height="20" fill="#eeb480" /><rect x="120" y="440" width="20" height="20" fill="#eeb480" /><rect x="140" y="440" width="20" height="20" fill="#eeb480" /><rect x="160" y="440" width="20" height="20" fill="#b5decc" /><rect x="180" y="440" width="20" height="20" fill="#eeb480" /><rect x="220" y="440" width="20" height="20" fill="#eeb480" /><rect x="240" y="440" width="20" height="20" fill="#ffdd00" /><rect x="260" y="440" width="20" height="20" fill="#b2b73e" /><rect x="0" y="460" width="20" height="20" fill="#b2b73e" /><rect x="20" y="460" width="20" height="20" fill="#b2b73e" /><rect x="40" y="460" width="20" height="20" fill="#b2b73e" /><rect x="100" y="460" width="20" height="20" fill="#b2b73e" /><rect x="120" y="460" width="20" height="20" fill="#eeb480" /><rect x="140" y="460" width="20" height="20" fill="#b5decc" /><rect x="160" y="460" width="20" height="20" fill="#ffdd00" /><rect x="180" y="460" width="20" height="20" fill="#eeb480" /><rect x="200" y="460" width="20" height="20" fill="#b2b73e" /><rect x="220" y="460" width="20" height="20" fill="#eeb480" /><rect x="240" y="460" width="20" height="20" fill="#ffdd00" /><rect x="260" y="460" width="20" height="20" fill="#b2b73e" /><rect x="0" y="480" width="20" height="20" fill="#b2b73e" /><rect x="20" y="480" width="20" height="20" fill="#b2b73e" /><rect x="40" y="480" width="20" height="20" fill="#b2b73e" /><rect x="100" y="480" width="20" height="20" fill="#ffdd00" /><rect x="120" y="480" width="20" height="20" fill="#b5decc" /><rect x="140" y="480" width="20" height="20" fill="#ffdd00" /><rect x="160" y="480" width="20" height="20" fill="#b2b73e" /><rect x="180" y="480" width="20" height="20" fill="#b2b73e" /><rect x="200" y="480" width="20" height="20" fill="#b2b73e" /><rect x="220" y="480" width="20" height="20" fill="#eeb480" /><rect x="240" y="480" width="20" height="20" fill="#ffdd00" /><rect x="260" y="480" width="20" height="20" fill="#b2b73e" /><rect x="0" y="500" width="20" height="20" fill="#b2b73e" /><rect x="20" y="500" width="20" height="20" fill="#b2b73e" /><rect x="40" y="500" width="20" height="20" fill="#b2b73e" /><rect x="60" y="500" width="20" height="20" fill="#b2b73e" /><rect x="80" y="500" width="20" height="20" fill="#b5decc" /><rect x="100" y="500" width="20" height="20" fill="#eeb480" /><rect x="120" y="500" width="20" height="20" fill="#b5decc" /><rect x="140" y="500" width="20" height="20" fill="#eeb480" /><rect x="160" y="500" width="20" height="20" fill="#eeb480" /><rect x="180" y="500" width="20" height="20" fill="#eeb480" /><rect x="200" y="500" width="20" height="20" fill="#eeb480" /><rect x="220" y="500" width="20" height="20" fill="#eeb480" /><rect x="240" y="500" width="20" height="20" fill="#ffdd00" /><rect x="260" y="500" width="20" height="20" fill="#b2b73e" /><rect x="0" y="520" width="20" height="20" fill="#b2b73e" /><rect x="20" y="520" width="20" height="20" fill="#b2b73e" /><rect x="40" y="520" width="20" height="20" fill="#b2b73e" /><rect x="60" y="520" width="20" height="20" fill="#b2b73e" /><rect x="80" y="520" width="20" height="20" fill="#ffdd00" /><rect x="100" y="520" width="20" height="20" fill="#b5decc" /><rect x="120" y="520" width="20" height="20" fill="#b5decc" /><rect x="140" y="520" width="20" height="20" fill="#eeb480" /><rect x="160" y="520" width="20" height="20" fill="#ffdd00" /><rect x="180" y="520" width="20" height="20" fill="#ffdd00" /><rect x="200" y="520" width="20" height="20" fill="#ffdd00" /><rect x="220" y="520" width="20" height="20" fill="#ffdd00" /><rect x="240" y="520" width="20" height="20" fill="#ffdd00" /><rect x="260" y="520" width="20" height="20" fill="#b2b73e" /><rect x="0" y="540" width="20" height="20" fill="#b2b73e" /><rect x="20" y="540" width="20" height="20" fill="#b2b73e" /><rect x="40" y="540" width="20" height="20" fill="#b2b73e" /><rect x="60" y="540" width="20" height="20" fill="#b2b73e" /><rect x="80" y="540" width="20" height="20" fill="#eeb480" /><rect x="100" y="540" width="20" height="20" fill="#ffdd00" /><rect x="120" y="540" width="20" height="20" fill="#eeb480" /><rect x="140" y="540" width="20" height="20" fill="#eeb480" /><rect x="160" y="540" width="20" height="20" fill="#ffdd00" /><rect x="180" y="540" width="20" height="20" fill="#ffdd00" /><rect x="200" y="540" width="20" height="20" fill="#ffdd00" /><rect x="220" y="540" width="20" height="20" fill="#ffdd00" /><rect x="240" y="540" width="20" height="20" fill="#ffdd00" /><rect x="260" y="540" width="20" height="20" fill="#b2b73e" /><rect x="0" y="560" width="20" height="20" fill="#b2b73e" /><rect x="20" y="560" width="20" height="20" fill="#b2b73e" /><rect x="40" y="560" width="20" height="20" fill="#b2b73e" /><rect x="60" y="560" width="20" height="20" fill="#b2b73e" /><rect x="80" y="560" width="20" height="20" fill="#eeb480" /><rect x="100" y="560" width="20" height="20" fill="#ffdd00" /><rect x="120" y="560" width="20" height="20" fill="#eeb480" /><rect x="140" y="560" width="20" height="20" fill="#ffdd00" /><rect x="160" y="560" width="20" height="20" fill="#ffdd00" /><rect x="180" y="560" width="20" height="20" fill="#ffdd00" /><rect x="200" y="560" width="20" height="20" fill="#ffdd00" /><rect x="220" y="560" width="20" height="20" fill="#ffdd00" /><rect x="240" y="560" width="20" height="20" fill="#ffdd00" /><rect x="260" y="560" width="20" height="20" fill="#b2b73e" /><rect x="20" y="580" width="20" height="20" fill="#b2b73e" /><rect x="40" y="580" width="20" height="20" fill="#b2b73e" /><rect x="60" y="580" width="20" height="20" fill="#b2b73e" /><rect x="80" y="580" width="20" height="20" fill="#b5decc" /><rect x="100" y="580" width="20" height="20" fill="#ffdd00" /><rect x="120" y="580" width="20" height="20" fill="#b5decc" /><rect x="140" y="580" width="20" height="20" fill="#ffdd00" /><rect x="160" y="580" width="20" height="20" fill="#ffdd00" /><rect x="180" y="580" width="20" height="20" fill="#ffdd00" /><rect x="200" y="580" width="20" height="20" fill="#ffdd00" /><rect x="220" y="580" width="20" height="20" fill="#ffdd00" /><rect x="240" y="580" width="20" height="20" fill="#ffdd00" /><rect x="260" y="580" width="20" height="20" fill="#b2b73e" /><rect x="100" y="600" width="20" height="20" fill="#eeb480" /><rect x="120" y="600" width="20" height="20" fill="#b2b73e" /><rect x="140" y="600" width="20" height="20" fill="#b2b73e" /><rect x="160" y="600" width="20" height="20" fill="#b2b73e" /><rect x="180" y="600" width="20" height="20" fill="#b2b73e" /><rect x="200" y="600" width="20" height="20" fill="#b2b73e" /><rect x="220" y="600" width="20" height="20" fill="#b2b73e" /><rect x="240" y="600" width="20" height="20" fill="#b2b73e" /><rect x="260" y="600" width="20" height="20" fill="#b2b73e" /><circle cx="10" cy="310" r="3" fill="#000" /><line x1="10" y1="310" x2="30" y2="310" stroke="#000" stroke-width="2" /><polygon points="27,307 33,310 27,313" stroke="#000" /></a></svg>