<?xml version="1.0" encoding="UTF-8"?>
<!DOCTYPE svg PUBLIC "-//W3C//DTD SVG 1.1//EN"
    "http://www.w3.org/Graphics/SVG/1.1/DTD/svg11.dtd">
<svg xmlns="http://www.w3.org/2000/svg" xmlns:xlink="http://www.w3.org/1999/xlink" version="1.1" width="140" height="180"><a href="examples/minimal.png"><rect x="80" y="0" width="20" height="20" fill="#ffdd00" /><rect x="40" y="20" width="20" height="20" fill="#b2b73e" /><rect x="60" y="20" width="20" height="20" fill="#ffdd00" /><rect x="80" y="20" width="20" height="20" fill="#b5decc" /><rect x="100" y="20" width="20" height="20" fill="#ffdd00" /><rect x="20" y="40" width="20" height="20" fill="#eeb480" /><rect x="40" y="40" width="20" height="20" fill="#b2b73e" /><rect x="60" y="40" width="20" height="20" fill="#b5decc" /><rect x="80" y="40" width="20" height="20" fill="#b2b73e" /><rect x="100" y="40" width="20" height="20" fill="#b5decc" /><rect x="120" y="40" width="20" height="20" fill="#ffdd00" /><rect x="0" y="60" width="20" height="20" fill="#ffdd00" /><rect x="20" y="60" width="20" height="20" fill="#ffdd00" /><rect x="40" y="60" width="20" height="20" fill="#b2b73e" /><rect x="60" y="60" width="20" height="20" fill="#b5decc" /><rect x="80" y="60" width="20" height="20" fill="#eeb480" /><rect x="100" y="60" width="20" height="20" fill="#ffdd00" /><rect x="0" y="80" width="20" height="20" fill="#eeb480" /><rect x="20" y="80" width="20" height="20" fill="#eeb480" /><rect x="40" y="80" width="20" height="20" fill="#eeb480" /><rect x="60" y="80" width="20" height="20" fill="#eeb480" /><rect x="80" y="80" width="20" height="20" fill="#ffdd00" /><rect x="0" y="100" width="20" height="20" fill="#ffdd00" /><rect x="20" y="100" width="20" height="20" fill="#ffdd00" /><rect x="60" y="100" width="20" height="20" fill="#b5decc" /><rect x="80" y="100" width="20" height="20" fill="#b2b73e" /><rect x="0" y="120" width="20" height="20" fill="#ffdd00" /><rect x="20" y="120" width="20" height="20" fill="#b5decc" /><rect x="40" y="120" width="20" height="20" fill="#b2b73e" /><rect x="60" y="120" width="20" height="20" fill="#b5decc" /><rect x="80" y="120" width="20" height="20" fill="#b2b73e" /><rect x="100" y="120" width="20" height="20" fill="#eeb480" /><rect x="20" y="140" width="20" height="20" fill="#ffdd00" /><rect x="40" y="140" width="20" height="20" fill="#b5decc" /><rect x="60" y="140" width="20" height="20" fill="#ffdd00" /><rect x="80" y="140" width="20" height="20" fill="#b2b73e" /><rect x="40" y="160" width="20" height="20" fill="#ffdd00" /><circle cx="10" cy="90" r="3" fill="#000" /><line x1="10" y1="90" x2="30" y2="90" stroke="#000" stroke-width="2" /><polygon points="27,87 33,90 27,93" stroke="#000" /></a></svg>